<?xml version="1.0" encoding="utf-8"?><svg version="1.1" id="Layer_1" xmlns="http://www.w3.org/2000/svg" xmlns:xlink="http://www.w3.org/1999/xlink" x="0px" y="0px"	 viewBox="0 0 1190 842" style="enable-background:new 0 0 1190 842;" xml:space="preserve"><style type="text/css">	.st0{opacity:0.1;fill:#2b343d;enable-background:new    ;}</style><path class="st0" d="M20.4,41.6h0.8l19.4-19.4L59,40.6L39.9,59.7l-0.1,0.1l-0.6,0.6l0.4,0.4l0,0l19.8,19.8v38.8l-19.5,19.5l-0.3,0.3	v0.8l20.1,20.1l0.3,0.3h0.8l19.8-19.8H159l19.8,19.8h40.5l20.4-20.4v-37.6l37.6,37.6l0,0l20.1,20.1l0.3,0.3l19.2,19.2l0,0l20.1,20.1	l0.3,0.3h0.8l20.4-20.4v-0.8l-20.1-20.1l-0.3-0.3h-0.8l-19.4,19.4l-18.4-18.4l19.4-19.4l0,0l19.2-19.2h39.6l19.4-19.4l18.4,18.4	l-19.1,19.1l-0.3,0.3v0.8l20.1,20.1l0.3,0.3h0.8l20.4-20.4v-0.8l-20.1-20.1l-0.3-0.3l-19.2-19.2V60l-20.4-20.4h-40.5L316.8,60v40.5	l19.4,19.4l-18.4,18.4L299,119.2l-0.3-0.3h-0.8l-19.4,19.4l-38.2-38.2L259,81.3l0,0l20.4-20.4v-0.8L259.3,40l-0.3-0.3h-0.8	l-19.8,19.8H160L140.5,40l-0.3-0.3h-0.8l-20.1,20.1l-0.3,0.3v0.8L139,81l0.3,0.3l19.2,19.2v38.2H80.7l-19.2-19.2V80.7l19.8-19.8	v-0.8L61.9,40.6l0,0L43,21.8h116.1l19.5,19.5l0.3,0.3h0.8l20.4-20.4v-0.8l-20-20.1L179.8,0H179l-19.8,19.8H41L21.5,0.3L21.2,0h-0.8	L0.3,20.1L0,20.4v0.8l20.1,20.1L20.4,41.6z M337.9,160.9l18.4,18.4l-18.4,18.4l-18.4-18.3L337.9,160.9z M435.6,139.7l-18.4,18.4	l-18.4-18.4l18.4-18.4L435.6,139.7z M319.1,60.9l19.2-19.2h38.8l19.2,19.2v38.8l-19.2,19.2h-38.8l-19.2-19.2V60.9z M298.2,121.3	l18.4,18.4l-18.4,18.4l-18.4-18.4L298.2,121.3z M60.4,158.1L42,139.7l18.4-18.4l18.4,18.4L60.4,158.1z M237.8,139.3l-19.2,19.2	h-38.8l-19.2-19.2v-38.8l19.2-19.2h38.8l18.8,18.8l0.4,0.4V139.3z M258.6,42L277,60.5l-18.4,18.4l-18.4-18.4L258.6,42z M139.7,42	l18.4,18.4l-18.4,18.4l-18.4-18.4L139.7,42z M141.1,80.3L160,61.5h78.4l18.8,18.8l-18.4,18.4l-19.4-19.4h-40.5l-19.4,19.4	L141.1,80.3z M78.9,60.5L60.5,78.9L42,60.5l18.4-18.4L78.9,60.5z M179.3,2.4l18.4,18.4l-18.4,18.4l-18.4-18.4L179.3,2.4z M20.8,2.4	l18.4,18.4L20.8,39.2L2.4,20.8L20.8,2.4z"/></svg>