<?xml version="1.0" encoding="utf-8"?><svg version="1.1" id="Layer_1" xmlns="http://www.w3.org/2000/svg" xmlns:xlink="http://www.w3.org/1999/xlink" x="0px" y="0px"	 viewBox="0 0 1190 842" style="enable-background:new 0 0 1190 842;" xml:space="preserve"><style type="text/css">	.st0{opacity:0.1;fill:#2b343d;enable-background:new    ;}</style><g>	<path class="st0" d="M637.7,87.1l-39.2,39.2l-37.8-37.8l39.2-39.2l-1.4-1.4l-39.2,39.2l-39.2-39.2l-39.2,39.2l-39.2-39.2l-1.4,1.4		L480.8,90l0,0l39.2,39.2L559.3,90l0,0l0,0l39.2,39.2l40.6-40.6L637.7,87.1z M520.1,126.4l-37.8-37.8l37.8-37.8l37.8,37.8		L520.1,126.4z"/>	<path class="st0" d="M520.1,165.6l-39.2-39.2l-39.2,39.2l-37.8-37.8L443,88.5l-1.4-1.4l-39.2,39.2l-39.2-39.2L324,126.3l-37.8-37.8		l39.2-39.2l-1.4-1.4l-39.2,39.2l-39.2-39.2l-1.4,1.4l39.2,39.2l-37.8,37.8l-39.2-39.2L167,126.4l-37.8-37.8l39.2-39.2L167,48		l-39.2,39.2L88.5,47.9l-1.4,1.4l39.2,39.2l-37.8,37.8L49.3,87.1l-1.4,1.4l40.6,40.6L127.8,90l0,0l0,0l39.2,39.2l0,0l39.2,39.2l0,0		l39.2,39.2l0,0l39.2,39.2l40.6-40.6l-1.4-1.4L284.7,244l-37.8-37.8l39.2-39.2l-1.4-1.4l-39.2,39.2L207.6,167l18.2-18.2l19.6,19.6		l40.6-40.6l-1.4-1.4l-39.2,39.2l-18.2-18.2l18.2-18.2l0,0L284.7,90l0,0l0,0l39.2,39.2L363.1,90l39.2,39.2l0,0l39.2,39.2l39.2-39.2		l39.2,39.2l40.6-40.6l-1.4-1.4L520.1,165.6z M225.8,146l-19.6-19.6l-1.4,1.4l19.6,19.6l-18.2,18.2l-37.8-37.8L206.2,90l37.8,37.8		L225.8,146z"/>	<polygon class="st0" points="441.6,204.6 402.4,165.4 363.1,204.6 323.9,165.4 322.5,166.8 363.1,207.5 402.4,168.2 441.6,207.5 		482.2,166.8 480.8,165.4 	"/></g></svg>