<?xml version="1.0" encoding="utf-8"?><svg version="1.1" id="Layer_1" xmlns="http://www.w3.org/2000/svg" xmlns:xlink="http://www.w3.org/1999/xlink" x="0px" y="0px"	 viewBox="0 0 1190 842" style="enable-background:new 0 0 1190 842;" xml:space="preserve"><style type="text/css">	.st0{opacity:0.08;fill:#2b343d;}</style><g>	<path class="st0" d="M38.5,169.4c2.6,0,4.8-1.4,6.1-3.4l69.1,37.2c-1,1.9-1.5,4.1-1.5,6.4c0,8,6.5,14.5,14.5,14.5		c7.2,0,13.2-5.3,14.3-12.3l59.1,7.1c0,0.1,0,0.2,0,0.4c0,4,3.2,7.2,7.2,7.2s7.2-3.2,7.2-7.2s-3.2-7.2-7.2-7.2		c-3.5,0-6.5,2.5-7.1,5.9l-59-7.1c0-0.4,0.1-0.8,0.1-1.2c0-8-6.5-14.5-14.5-14.5c-5.3,0-10,2.9-12.5,7.2l-69.1-37.2		c0.4-0.9,0.6-1.9,0.6-3c0-4-3.2-7.2-7.2-7.2s-7.2,3.2-7.2,7.2C31.3,166.1,34.5,169.4,38.5,169.4z"/>	<path class="st0" d="M1160.5,50.8c-1.8,0-3.3,1.4-3.6,3.1h-77.6c-0.3-7.8-6.6-14-14.4-14c-6.4,0-11.9,4.2-13.8,10l-54.3-15.7		c0.1-0.5,0.2-1,0.2-1.5c0-4-3.2-7.2-7.2-7.2s-7.2,3.2-7.2,7.2s3.2,7.2,7.2,7.2c3.1,0,5.8-2,6.8-4.8l54.3,15.7		c-0.3,1.1-0.5,2.3-0.5,3.5c0,8,6.5,14.5,14.5,14.5c7.8,0,14.2-6.2,14.4-14h77.6c0.2,1.8,1.7,3.1,3.6,3.1c2,0,3.6-1.6,3.6-3.6		S1162.5,50.8,1160.5,50.8z"/>	<path class="st0" d="M511.7,168.2c2,0,3.6-1.6,3.6-3.6c0-0.9-0.3-1.6-0.8-2.3l21.9-23.6c1.2,1,2.8,1.6,4.5,1.6c1.3,0,2.6-0.4,3.7-1		l15.5,22.6c-0.7,0.7-1.2,1.6-1.2,2.7c0,2,1.6,3.6,3.6,3.6s3.6-1.6,3.6-3.6s-1.6-3.6-3.6-3.6c-0.6,0-1.1,0.1-1.6,0.4l-15.5-22.6		c1.7-1.3,2.7-3.4,2.7-5.7c0-1-0.2-2-0.6-2.8l42.9-21.8c2.5,4.5,7.2,7.5,12.7,7.5c8,0,14.5-6.5,14.5-14.5c0-1.5-0.2-2.9-0.7-4.3		L653,84.7c1.1,2.6,3.7,4.4,6.6,4.4c1.2,0,2.4-0.3,3.4-0.8l25.1,40.2c-3.9,2.6-6.4,7-6.4,12c0,8,6.5,14.5,14.5,14.5		s14.5-6.5,14.5-14.5s-6.5-14.5-14.5-14.5c-2.6,0-5.1,0.7-7.2,1.9l-25.1-40.2c1.4-1,2.4-2.5,2.8-4.2l60.2,10.1c0,0.2,0,0.5,0,0.7		c0,4,3.2,7.2,7.2,7.2s7.2-3.2,7.2-7.2c0-3.4-2.3-6.2-5.4-7l7.7-40.2c0.3,0,0.6,0.1,0.9,0.1c0.6,0,1.1-0.1,1.7-0.2l29.5,93.9		c-2.7,1.1-4.6,3.7-4.6,6.7c0,4,3.2,7.2,7.2,7.2c2.9,0,5.4-1.7,6.5-4.1l29.4,11.7c-0.2,0.7-0.3,1.4-0.3,2.2c0,2.5,1.2,4.7,3.2,6		l-18.3,31.1c-0.4-0.2-0.9-0.3-1.4-0.3c-2,0-3.6,1.6-3.6,3.6s1.6,3.6,3.6,3.6s3.6-1.6,3.6-3.6c0-1.1-0.5-2.2-1.4-2.8l18.3-31.1		c1,0.5,2.1,0.8,3.2,0.8c2.2,0,4.2-1,5.5-2.6l57.4,42.1c-1.6,2.3-2.5,5.1-2.5,8.1c0,8,6.5,14.5,14.5,14.5s14.5-6.5,14.5-14.5		c0-4.2-1.8-8-4.7-10.7l20.5-23.9c1.2,0.9,2.7,1.4,4.3,1.4c2.7,0,5.1-1.5,6.3-3.7l45.6,21.3c-0.7,1.7-1.2,3.7-1.2,5.7		c0,8,6.5,14.5,14.5,14.5s14.5-6.5,14.5-14.5c0-2.5-0.6-4.9-1.8-6.9l38.9-23c2.6,4,7.1,6.7,12.2,6.7c1.6,0,3.2-0.3,4.6-0.8		l17.1,45.3c-1.1,0.6-1.9,1.8-1.9,3.2c0,2,1.6,3.6,3.6,3.6s3.6-1.6,3.6-3.6s-1.6-3.6-3.6-3.6c-0.3,0-0.5,0-0.8,0.1l-17.1-45.2		c5.2-2.2,8.9-7.3,8.9-13.4c0-8-6.5-14.5-14.5-14.5c-4.2,0-8,1.8-10.7,4.7l-66.4-56.3c0.9-1.2,1.4-2.7,1.4-4.3c0-4-3.2-7.2-7.2-7.2		s-7.2,3.2-7.2,7.2s3.2,7.2,7.2,7.2c2,0,3.9-0.8,5.2-2.2l66.4,56.3c-2,2.5-3.1,5.6-3.1,9c0,2.5,0.6,4.9,1.8,6.9l-38.9,23		c-2.6-4-7.1-6.7-12.2-6.7c-5.6,0-10.5,3.2-12.9,7.9l-45.6-21.3c0.3-0.8,0.5-1.7,0.5-2.6c0-0.9-0.2-1.9-0.5-2.7l55.5-26.8		c0.6,1,1.8,1.6,3,1.6c2,0,3.6-1.6,3.6-3.6s-1.6-3.6-3.6-3.6s-3.6,1.6-3.6,3.6c0,0.4,0.1,0.8,0.2,1.1l-55.5,26.8		c-1.2-2.2-3.6-3.7-6.3-3.7c-1.4,0-2.7,0.4-3.8,1.1l-25.6-35.6c3.4-2.6,5.6-6.8,5.6-11.4c0-7.8-6.2-14.2-14-14.4V68.8		c1.8-0.2,3.1-1.7,3.1-3.6c0-2-1.6-3.6-3.6-3.6s-3.6,1.6-3.6,3.6c0,1.8,1.4,3.3,3.1,3.6v42.7c-7.8,0.3-14,6.6-14,14.4		c0,8,6.5,14.5,14.5,14.5c3,0,5.7-0.9,8-2.4l25.6,35.6c-1.6,1.3-2.6,3.3-2.6,5.6c0,2,0.8,3.8,2.2,5.2L905,208.3		c-2.5-2-5.6-3.2-9-3.2c-4.6,0-8.7,2.2-11.4,5.5l-57.4-42.1c0.7-1.1,1.1-2.4,1.1-3.9c0-4-3.2-7.2-7.2-7.2c-2.9,0-5.4,1.7-6.5,4.1		l-29.4-11.7c0.2-0.7,0.3-1.4,0.3-2.2c0-4-3.2-7.2-7.2-7.2c-0.6,0-1.1,0.1-1.7,0.2l-29.5-93.9c2.7-1.1,4.6-3.7,4.6-6.7		c0-4-3.2-7.2-7.2-7.2s-7.2,3.2-7.2,7.2c0,3.4,2.3,6.2,5.4,7L735,87.2c-0.3,0-0.6-0.1-0.9-0.1c-3.4,0-6.3,2.4-7,5.5l-60.2-10.1		c0-0.2,0-0.5,0-0.7c0-4-3.2-7.2-7.2-7.2s-7.2,3.2-7.2,7.2c0,0.7,0.1,1.3,0.3,1.9l-35.9,12.6c-2.1-5.4-7.3-9.2-13.5-9.2		c-8,0-14.5,6.5-14.5,14.5c0,2.2,0.5,4.2,1.4,6.1l-42.9,21.8c-1.3-2.1-3.6-3.5-6.2-3.5c-4,0-7.2,3.2-7.2,7.2c0,1.9,0.7,3.6,2,4.9		l-21.9,23.6c-0.6-0.4-1.3-0.7-2.1-0.7c-2,0-3.6,1.6-3.6,3.6C508.1,166.6,509.7,168.2,511.7,168.2z"/>	<path class="st0" d="M584.1,516.2c-1.5,1.3-2.5,3.3-2.5,5.5c0,1.2,0.3,2.3,0.8,3.3l-24,14.3c-0.7-0.8-1.7-1.4-2.8-1.4		c-2,0-3.6,1.6-3.6,3.6s1.6,3.6,3.6,3.6s3.6-1.6,3.6-3.6c0-0.5-0.1-1-0.3-1.4l24-14.3c1.3,1.9,3.5,3.1,5.9,3.1		c0.6,0,1.1-0.1,1.6-0.2l8.2,26.9c-1.2,0.6-2.1,1.8-2.1,3.3c0,2,1.6,3.6,3.6,3.6s3.6-1.6,3.6-3.6s-1.6-3.6-3.6-3.6		c-0.2,0-0.4,0-0.6,0.1l-8.2-26.9c2.7-1,4.7-3.7,4.7-6.8c0-4-3.2-7.2-7.2-7.2c-1.4,0-2.8,0.4-3.9,1.2l-31.3-42		c3.3-2.7,5.4-6.7,5.4-11.3c0-3.5-1.2-6.6-3.2-9.1L619,398c0.6,0.6,1.5,0.9,2.4,0.9c0.7,0,1.3-0.2,1.8-0.5l30.3,38.9		c-0.6,0.7-1,1.5-1,2.5c0,2,1.6,3.6,3.6,3.6s3.6-1.6,3.6-3.6s-1.6-3.6-3.6-3.6c-0.7,0-1.3,0.2-1.8,0.5L624,397.8		c0.6-0.7,1-1.5,1-2.5c0-2-1.6-3.6-3.6-3.6s-3.6,1.6-3.6,3.6c0,0.7,0.2,1.4,0.6,2L555,452.4c-2.6-2.8-6.4-4.6-10.6-4.6		c-4,0-7.6,1.6-10.3,4.3l-29.5-27.4c1-1.2,1.6-2.8,1.6-4.5c0-2.6-1.4-4.9-3.5-6.2l24.7-47.4c1.9,0.9,4,1.4,6.2,1.4		c8,0,14.5-6.5,14.5-14.5c0-6.4-4.1-11.8-9.9-13.7l12.9-43.4c0.2,0,0.4,0.1,0.5,0.1c2,0,3.6-1.6,3.6-3.6s-1.6-3.6-3.6-3.6		s-3.6,1.6-3.6,3.6c0,1.5,0.9,2.7,2.1,3.3l-12.9,43.4c-1.2-0.3-2.4-0.5-3.7-0.5c-8,0-14.5,6.5-14.5,14.5c0,5.4,3,10.1,7.3,12.6		L502,413.6c-0.9-0.4-1.9-0.6-2.9-0.6c-3,0-5.6,1.9-6.7,4.5L432,397.9c0.1-0.6,0.2-1.1,0.2-1.8c0-3.3-2.2-6.1-5.2-6.9l7.8-35.8		c0.8,0.2,1.7,0.2,2.6,0.2c8,0,14.5-6.5,14.5-14.5s-6.5-14.5-14.5-14.5s-14.5,6.5-14.5,14.5c0,4.1,1.7,7.8,4.4,10.4l-66.6,73.7		c-1.2-1-2.8-1.5-4.5-1.5c-3.6,0-6.6,2.6-7.1,6.1l-33.6-3v-0.1c0-4-3.2-7.2-7.2-7.2s-7.2,3.2-7.2,7.2c0,0.3,0,0.6,0.1,0.9		l-72.5,13.8c-1.5-6.5-7.2-11.3-14.1-11.3c-1.1,0-2.2,0.1-3.2,0.4l-8.9-33.6c2.9-1,4.9-3.7,4.9-6.8c0-1.1-0.3-2.2-0.7-3.1l42.4-23.8		c2.5,4.2,7.1,7,12.4,7c8,0,14.5-6.5,14.5-14.5c0-6-3.7-11.2-8.9-13.4l14.1-37.7c0.7,0.2,1.3,0.3,2.1,0.3c4,0,7.2-3.2,7.2-7.2		s-3.2-7.2-7.2-7.2s-7.2,3.2-7.2,7.2c0,2.9,1.7,5.4,4.2,6.6L266.2,340c-1.4-0.5-3-0.8-4.6-0.8c-8,0-14.5,6.5-14.5,14.5		c0,2.4,0.6,4.6,1.6,6.6L206,384c-1.3-2-3.5-3.3-6-3.3c-1.6,0-3.1,0.5-4.3,1.4L157.1,337c1.3-1.3,2.2-3.1,2.2-5.2		c0-4-3.2-7.2-7.2-7.2s-7.2,3.2-7.2,7.2s3.2,7.2,7.2,7.2c1.6,0,3.1-0.5,4.3-1.4l38.6,45.1c-1.2,1.2-2,2.8-2.1,4.7h-53.7		c-0.3-7.8-6.6-14-14.4-14c-2.9,0-5.7,0.9-7.9,2.4l-28.1-39.7c3.5-2.6,5.7-6.8,5.7-11.5c0-1.2-0.2-2.4-0.4-3.5l90.6-25.8		c1,2.8,3.7,4.8,6.8,4.8c4,0,7.2-3.2,7.2-7.2s-3.2-7.2-7.2-7.2S184,289,184,293c0,0.5,0.1,1,0.2,1.5l-90.6,25.8		c-1.9-5.8-7.3-10-13.8-10c-8,0-14.5,6.5-14.5,14.5c0,3.5,1.3,6.8,3.4,9.3l-35.1,31.4c-0.6-0.5-1.4-0.9-2.3-0.9		c-2,0-3.6,1.6-3.6,3.6s1.6,3.6,3.6,3.6s3.6-1.6,3.6-3.6c0-0.7-0.2-1.4-0.6-2l35.1-31.4c2.6,2.7,6.3,4.5,10.4,4.5		c2.9,0,5.7-0.9,7.9-2.4l28.1,39.7c-3.5,2.6-5.7,6.8-5.7,11.5c0,8,6.5,14.5,14.5,14.5c7.8,0,14.2-6.2,14.4-14h53.7		c0.3,3.8,3.4,6.7,7.2,6.7c0.5,0,0.9,0,1.4-0.1l8.9,33.6c-5.9,1.8-10.3,7.3-10.3,13.9c0,8,6.5,14.5,14.5,14.5s14.5-6.5,14.5-14.5		c0-0.8-0.1-1.5-0.2-2.2l72.5-13.8c0.8,2.9,3.4,5.2,6.5,5.4v39.7c-1.8,0.2-3.1,1.7-3.1,3.6c0,2,1.6,3.6,3.6,3.6s3.6-1.6,3.6-3.6		c0-1.8-1.4-3.3-3.1-3.6v-39.7c3.4-0.2,6.1-2.8,6.6-6.1l33.6,3v0.1c0,4,3.2,7.2,7.2,7.2s7.2-3.2,7.2-7.2c0-1.9-0.8-3.7-2-5		l66.6-73.7c1.6,1.4,3.6,2.4,5.8,3L426,389c-0.3,0-0.7-0.1-1-0.1c-4,0-7.2,3.2-7.2,7.2s3.2,7.2,7.2,7.2c3,0,5.6-1.9,6.7-4.5		l60.4,19.6c-0.1,0.6-0.2,1.1-0.2,1.8c0,1.2,0.3,2.4,0.9,3.4l-40.2,25.3c-2.6-3.8-7-6.3-12-6.3c-8,0-14.5,6.5-14.5,14.5		s6.5,14.5,14.5,14.5s14.5-6.5,14.5-14.5c0-2.7-0.7-5.1-2-7.3l40.2-25.3c1.3,1.8,3.4,3,5.8,3c1.9,0,3.7-0.8,4.9-2l29.5,27.4		c-2.2,2.5-3.5,5.8-3.5,9.5c0,8,6.5,14.5,14.5,14.5c3.1,0,5.9-1,8.2-2.6L584.1,516.2z"/></g></svg>