<?xml version="1.0" encoding="utf-8"?><svg version="1.1" id="Layer_1" xmlns="http://www.w3.org/2000/svg" xmlns:xlink="http://www.w3.org/1999/xlink" x="0px" y="0px"	 viewBox="0 0 1190 842" style="enable-background:new 0 0 1190 842;" xml:space="preserve"><style type="text/css">	.st0{opacity:0.08;fill:#2b343d;enable-background:new    ;}</style><g>	<polygon class="st0" points="257.4,312.1 347.6,330.4 318.1,244.2 	"/>	<polygon class="st0" points="204,322.4 231.9,278.7 180,276 	"/>	<polygon class="st0" points="300.9,156 291,180.7 242.5,174.4 246.6,184.5 218.6,193.2 239,208.9 247.7,187 265.9,230.4 		276.5,216.7 275,220.9 337.6,211.5 362.9,237.4 376.3,187.8 333.9,198.6 	"/>	<polygon class="st0" points="232.4,116.4 316.7,155.7 317,147.7 372.5,145.6 369.7,147.7 411.6,166.3 409.2,144.4 428.1,143.7 		424.5,129.6 429.2,136.5 449.9,106.5 420,112.5 417.9,104.5 430,86.8 402.9,81.4 409.9,98.3 317.2,146.1 320.3,86.1 	"/>	<polygon class="st0" points="107.7,371.2 124.4,351.9 95.7,348.3 106.7,370.5 62.5,345.5 50.2,437.6 123,379.9 	"/>	<polygon class="st0" points="143.9,163.7 204.7,230.2 226.6,128 198.6,140.2 202.1,135 179.5,133.4 185.6,145.8 	"/>	<polygon class="st0" points="230.3,306.4 205.6,325.5 232.9,340.8 	"/>	<polygon class="st0" points="235.2,228.3 252.7,238.2 251,216 	"/>	<polygon class="st0" points="302.1,227.6 301.4,249.9 321,239.5 	"/>	<polygon class="st0" points="136.8,259.1 165.8,270.7 158.8,237 	"/>	<polygon class="st0" points="286.1,164.2 263.7,135.1 249.8,169.6 	"/>	<polygon class="st0" points="213.8,125.2 226.6,102.5 268.9,96.2 233.4,50.3 218.6,87.3 203.3,85.3 	"/>	<polygon class="st0" points="180,282.9 149.3,278.9 159.7,318.9 	"/>	<polygon class="st0" points="112.2,318.7 96.8,315.3 102.3,331.6 	"/>	<polygon class="st0" points="132.2,326.4 136.9,340.5 150,327.9 	"/>	<polygon class="st0" points="189.4,339.6 195.2,355.9 205.1,343.1 	"/>	<polygon class="st0" points="131.4,197.9 146.8,192.9 135.9,181.2 	"/>	<polygon class="st0" points="178.5,321.3 146,343.6 184.9,337.3 	"/>	<polygon class="st0" points="98,262.1 95.7,279.1 135,275.6 	"/>	<polygon class="st0" points="647.9,120.5 602.3,112 607.4,127.3 598.7,127.7 606.5,139.3 609.5,134.3 617.3,158.1 	"/>	<polygon class="st0" points="770.3,162.4 800.9,124.9 792.3,123.2 797.7,120.2 777,109.8 776.4,120.2 755.3,116.4 	"/>	<polygon class="st0" points="783.1,154.4 798.8,163.3 798.1,146.8 	"/>	<polygon class="st0" points="816.5,144 814.1,160.7 830.4,153.1 	"/>	<polygon class="st0" points="695.3,144.2 690.8,141.1 715,139.7 713.9,155.8 736,143 727.5,138.8 761.2,136.7 739.7,91.7 		753.1,67.5 719.8,78.1 723.2,93.8 684,136.5 681.6,135 680.9,140 679.2,141.9 680.6,141.8 679.2,151.7 	"/>	<polygon class="st0" points="642.5,135.8 643.5,151 655,142.8 	"/>	<polygon class="st0" points="826.8,131.1 812,125.2 812.9,138.3 	"/>	<polygon class="st0" points="660.4,120.2 661.1,133.2 675.2,125.9 	"/>	<polygon class="st0" points="666.5,150.3 673.4,136.7 657.3,136.4 	"/>	<polygon class="st0" points="560.6,102.1 560.1,97.8 546.2,110.1 529.7,119 531.2,90.1 493.5,104 500.1,108.9 480.8,145.1 		489.3,144.9 484.6,149.1 507.1,155.1 505.7,144.7 527.2,144.5 512.3,117.9 520.6,124 517.5,125.8 554.2,175.1 585.3,107.7 		595.9,112 595,95.2 588.9,99.5 596.9,82.3 	"/>	<polygon class="st0" points="631.7,97.2 678.1,96.7 670.3,82.6 678.6,80.7 668.7,70.6 666.8,76.4 654.5,54.5 	"/>	<polygon class="st0" points="399.4,193.9 412,169.4 384.5,167.5 	"/>	<polygon class="st0" points="475.4,106.8 479.2,123 492.6,112.4 	"/>	<polygon class="st0" points="460.8,112.4 446.4,123 461.7,129.2 	"/>	<polygon class="st0" points="630.1,66.5 620.6,76.6 634.1,81.1 	"/>	<polygon class="st0" points="454,143.8 469.9,146.6 466.4,134.1 	"/>	<polygon class="st0" points="603.9,97.1 619.5,99.9 616.2,87.3 	"/>	<polygon class="st0" points="421,181.9 434.6,186.4 430.7,171.8 	"/>	<polygon class="st0" points="433,167.8 464.8,153.4 429.9,153.1 	"/>	<polygon class="st0" points="439.4,98.1 470,81.3 459.9,69.8 	"/>	<polygon class="st0" points="607.7,71.5 603.5,86.1 619.4,83.3 	"/>	<polygon class="st0" points="59.7,143.5 65.7,187.5 95.9,161.1 71.7,149.4 78.5,142.4 77.6,145.9 101.6,137.1 91,129.2 		104.6,114.8 104.6,115.3 120.8,107.7 106.3,98.8 104.9,112.2 55.7,114.3 71.7,149.4 	"/>	<polygon class="st0" points="131.9,69.3 129.5,83.3 143,79.9 	"/>	<polygon class="st0" points="148.1,75 156.1,62.1 141.8,62.5 	"/>	<polygon class="st0" points="109.6,85.4 99,88.2 106.5,95.7 	"/>	<polygon class="st0" points="142.5,60.6 131.9,60 136.6,69.8 	"/>	<polygon class="st0" points="104.6,97.6 88.4,96.7 95.6,111.7 	"/>	<polygon class="st0" points="123,81.1 112.9,93.6 127.7,97.1 	"/>	<polygon class="st0" points="821.4,80 820.9,95.3 833,88.2 	"/>	<polygon class="st0" points="809.4,82.1 799.1,92 813.9,95.5 	"/>	<polygon class="st0" points="814.8,73.4 807.6,81.4 818.4,83.7 	"/>	<polygon class="st0" points="70.9,484.2 152.9,479 126.3,423.6 	"/>	<polygon class="st0" points="136.2,406.2 186.7,423.9 175,371.9 	"/>	<polygon class="st0" points="227.9,368.3 221.6,349.7 210.6,363.6 	"/>	<polygon class="st0" points="145.5,382.4 139.5,352.6 119.9,371.9 	"/>	<polygon class="st0" points="285.7,244.2 236,256.7 272.4,293.5 	"/>	<polygon class="st0" points="242.5,406.7 255.7,420.1 223.7,414 238.6,460.1 264.2,428.8 265.6,430 266.8,425.6 269.2,422.5 		267.7,422.3 274.1,398.7 	"/>	<polygon class="st0" points="197.4,460.1 215.3,451 198.6,440.3 	"/>	<polygon class="st0" points="251.2,323.4 256.2,359.6 280,345.9 	"/>	<polygon class="st0" points="235,393.1 220.4,378.4 209.1,398 235,395.6 234.8,405.1 281.7,378.2 235.2,351.4 	"/>	<polygon class="st0" points="136.2,423.7 145.6,435.7 150.5,422.5 	"/></g></svg>