<?xml version="1.0" encoding="utf-8"?><svg version="1.1" id="Layer_1" xmlns="http://www.w3.org/2000/svg" xmlns:xlink="http://www.w3.org/1999/xlink" x="0px" y="0px"	 viewBox="0 0 1190 842" style="enable-background:new 0 0 1190 842;" xml:space="preserve"><style type="text/css">	.st0{opacity:0.08;fill:#313c4e;enable-background:new    ;}</style><g>	<path class="st0" d="M599.569,132.94c-2.042,2.042-2.042,4.958,0,7c0.972,0.972,2.236,1.361,3.403,1.361		c1.361,0,2.625-0.583,3.403-1.361c0.972-0.972,1.361-2.236,1.361-3.403c0-1.167-0.583-2.625-1.361-3.403		C604.625,131.189,601.417,131.189,599.569,132.94z M604.431,137.801c-0.778,0.778-2.042,0.778-2.819,0		c-0.778-0.778-0.778-2.042,0-2.819c0.389-0.389,0.778-0.583,1.361-0.583c0.583,0,0.972,0.194,1.361,0.583		c0.389,0.389,0.583,0.778,0.583,1.361C605.014,136.926,604.819,137.315,604.431,137.801z"/>	<path class="st0" d="M602.972,121.176c-4.764,0-9.236,1.847-12.639,5.153c-0.194,0.194-0.389,0.583-0.389,0.972		c0,0.389,0.194,0.778,0.389,0.972l3.208,3.208c0.583,0.583,1.555,0.583,2.042,0c2.042-2.042,4.569-3.014,7.389-3.014		s5.444,0.972,7.389,3.014c0.194,0.194,0.583,0.389,0.972,0.389s0.778-0.194,0.972-0.389l3.208-3.208		c0.194-0.194,0.389-0.583,0.389-0.972c0-0.389-0.194-0.778-0.389-0.972C612.403,122.926,607.833,121.176,602.972,121.176z		 M611.431,128.565c-2.431-2.042-5.444-3.014-8.361-3.014c-2.917,0-6.028,0.972-8.361,3.014l-0.972-0.972		c2.625-2.236,6.028-3.403,9.431-3.403s6.806,1.167,9.431,3.403L611.431,128.565z"/>	<path class="st0" d="M602.972,110.773c-7.389,0-14.389,2.819-19.833,8.167c-0.194,0.194-0.389,0.583-0.389,0.972		s0.194,0.778,0.389,0.972l3.208,3.208c0.194,0.194,0.583,0.389,0.972,0.389s0.778-0.194,0.972-0.389		c3.792-3.792,9.042-6.028,14.583-6.028c5.639,0,10.597,2.236,14.583,6.028c0.583,0.583,1.556,0.583,2.042,0l3.208-3.208		c0.194-0.194,0.389-0.583,0.389-0.972s-0.194-0.778-0.389-0.972C617.556,113.787,610.556,110.773,602.972,110.773z		 M618.625,121.176c-4.181-3.792-9.819-5.833-15.556-5.833c-5.736,0-11.181,2.042-15.556,5.833l-0.972-0.972		c4.569-3.986,10.403-6.417,16.625-6.417c6.222,0,11.958,2.236,16.625,6.417L618.625,121.176z"/>	<path class="st0" d="M1125.444,108.537v-3.986v-1.361V71.203v-1.361v-3.208c0-1.847-1.361-3.208-3.208-3.208h-21		c-1.847,0-3.208,1.361-3.208,3.208v3.208v1.361v31.986v1.361v3.986c0,1.847,1.361,3.208,3.208,3.208h21		C1123.986,111.745,1125.444,110.384,1125.444,108.537z M1099.389,66.537c0-0.972,0.778-1.847,1.847-1.847h21		c0.972,0,1.847,0.778,1.847,1.847v3.208h-24.597L1099.389,66.537L1099.389,66.537z M1099.389,71.203h24.597v31.986h-24.597V71.203z		 M1099.389,108.537v-3.986h24.597v3.986c0,0.972-0.778,1.847-1.847,1.847h-21C1100.167,110.384,1099.389,109.606,1099.389,108.537z		"/>	<rect x="1109.014" y="106.787" class="st0" width="5.153" height="1.361"/>	<rect x="1108.819" y="66.731" class="st0" width="1.556" height="1.361"/>	<rect x="1111.444" y="66.731" class="st0" width="4.569" height="1.361"/>			<rect x="1103.558" y="84.228" transform="matrix(0.7071 -0.7071 0.7071 0.7071 264.7655 809.0178)" class="st0" width="10.792" height="1.361"/>			<rect x="1102.176" y="87.361" transform="matrix(0.7071 -0.7071 0.7071 0.7071 263.5835 812.4297)" class="st0" width="20.611" height="1.361"/>	<path class="st0" d="M201.639,83.356H203c0-3.986,3.208-7.194,7.194-7.194v-1.361C205.625,74.606,201.639,78.592,201.639,83.356z"		/>	<path class="st0" d="M220.208,71.398l1.167,0.972c2.042-2.236,4.958-3.597,7.972-3.597c1.167,0,2.236,0.194,3.208,0.389		l0.389-1.361c-1.167-0.389-2.431-0.583-3.597-0.583C225.847,67.314,222.444,68.773,220.208,71.398z"/>	<path class="st0" d="M245.778,76.745c-1.361-7.972-8.167-13.806-16.431-13.806c-6.222,0-11.569,3.208-14.583,8.556		c-1.556-0.778-3.403-0.972-5.153-0.972c-7.194,0-13.028,5.833-13.028,13.028c0,7.194,5.833,13.028,13.028,13.028h9.236v10.208		c0,0.389,0.389,0.778,0.778,0.778h4.569c0.389,0,0.778-0.389,0.778-0.778V96.578h6.222v3.792h-2.042		c-0.194,0-0.583,0.194-0.583,0.389c-0.194,0.194,0,0.583,0,0.778l5.153,6.417c0.194,0.194,0.389,0.194,0.583,0.194		c0.194,0,0.389-0.194,0.583-0.194l5.153-6.417c0.194-0.194,0.194-0.583,0-0.778c-0.194-0.194-0.389-0.389-0.583-0.389h-2.042		v-3.792h11.181c5.639,0,10.014-4.375,10.014-10.014c0-5.639-4.375-10.014-10.014-10.014		C247.625,76.356,246.556,76.551,245.778,76.745z M223.417,106.009h-3.208V95.801v-5.25c0-0.389-0.389-0.778-0.778-0.778h-1.167		l3.597-4.375l3.597,4.375h-1.361c-0.389,0-0.778,0.389-0.778,0.778v5.153v10.208L223.417,106.009L223.417,106.009z		 M237.611,101.731l-3.597,4.375l-3.597-4.375h1.167c0.389,0,0.778-0.389,0.778-0.778v-5.444v-9.917h3.208v10.014v5.444		c0,0.389,0.389,0.778,0.778,0.778h1.264L237.611,101.731L237.611,101.731z M256.958,86.37c0,4.569-3.792,8.556-8.556,8.556h-11.181		v-9.917c0-0.389-0.389-0.778-0.778-0.778h-4.569c-0.389,0-0.778,0.389-0.778,0.778v10.014h-6.222v-3.792h2.042		c0.194,0,0.583-0.194,0.583-0.389c0.194-0.194,0-0.583,0-0.778l-5.153-6.417c-0.194-0.389-0.778-0.389-1.167,0l-5.153,6.417		c-0.194,0.194-0.194,0.583,0,0.778c0.194,0.194,0.389,0.389,0.583,0.389h2.042v3.792h-9.236c-6.417,0-11.375-5.153-11.375-11.375		c0-6.417,5.153-11.375,11.375-11.375c1.847,0,3.597,0.389,5.153,1.167c0.194,0,0.389,0.194,0.583,0		c0.194,0,0.389-0.194,0.389-0.389c2.625-5.153,7.778-8.361,13.611-8.361c7.778,0,14.194,5.833,15.167,13.417		c0,0.194,0.194,0.389,0.389,0.583s0.389,0.194,0.583,0c0.972-0.389,2.042-0.583,3.014-0.583		C253.167,78.009,256.958,81.801,256.958,86.37z"/>	<path class="st0" d="M639.042,124.19c0-19.639-15.847-35.583-35.389-35.972V39.801h-55.417V-0.06h-2.042v41.611h55.417v46.375		C582.458,88.703,567,104.551,567,123.898c0,19.833,16.236,35.972,35.972,35.972C623,160.162,639.042,143.926,639.042,124.19z		 M602.972,158.12c-18.764,0-34.028-15.167-34.028-34.028s15.167-34.028,34.028-34.028c18.764,0,34.028,15.167,34.028,34.028		S621.833,158.12,602.972,158.12z"/>	<path class="st0" d="M227.597,43.592c-21.583,0-39.375,17.403-39.958,38.792H73.986V57.398H0v2.042h72.042v24.986h115.597		c0.389,21.583,18.181,39.181,39.958,39.181c21.972,0,39.958-17.986,39.958-39.958S249.764,43.592,227.597,43.592z M227.597,121.565		c-21,0-38.014-17.014-38.014-38.014s17.014-38.014,38.014-38.014s38.014,17.014,38.014,38.014S248.597,121.565,227.597,121.565z"/>	<path class="st0" d="M1113,182.328v-58.625c20.028-0.778,35.972-17.208,35.972-37.236c0-20.611-16.819-37.431-37.431-37.431		s-37.431,16.819-37.431,37.431c0,20.417,16.431,37.042,36.556,37.431v60.569h79.236v-2.042L1113,182.328L1113,182.328L1113,182.328		z M1076.444,86.565c0-19.444,15.847-35.389,35.389-35.389c19.444,0,35.389,15.847,35.389,35.389		c0,18.958-15.167,34.611-34.028,35.194v-0.389h-2.042v0.389C1091.806,121.37,1076.444,105.717,1076.444,86.565z"/>	<path class="st0" d="M496.222,75.773c4.569,0,8.361-3.597,8.847-7.972h27.222V-0.06h-2.042v65.625h-25.181		c-0.583-4.375-4.181-7.972-8.847-7.972c-4.958,0-9.042,3.986-9.042,9.042S491.167,75.773,496.222,75.773z M496.222,59.731		c3.792,0,7,3.208,7,7c0,3.792-3.208,7-7,7s-7-3.208-7-7C489.222,62.94,492.431,59.731,496.222,59.731z"/>	<path class="st0" d="M401.042,169.981V32.995h-41.417V-0.06h-2.042v122.208c-6.417,0.389-11.375,5.639-11.375,11.958		c0,6.611,5.444,12.153,12.153,12.153c6.611,0,12.153-5.444,12.153-12.153c0-6.222-4.764-11.375-10.792-11.958V34.939h39.375		v135.042c-4.569,0.389-8.361,4.181-8.361,9.042c0,4.958,3.986,9.042,9.042,9.042s9.042-3.986,9.042-9.042		C408.625,174.356,405.222,170.759,401.042,169.981z M368.375,134.398c0,5.639-4.569,10.208-10.208,10.208		s-10.208-4.569-10.208-10.208c0-5.639,4.569-10.208,10.208-10.208S368.375,128.759,368.375,134.398z M399.583,185.731		c-3.792,0-7-3.208-7-7c0-3.792,3.208-7,7-7s7,3.208,7,7S403.375,185.731,399.583,185.731z"/>	<path class="st0" d="M166.639,143.342c-4.569,0-8.361,3.403-8.847,7.972H98v23.042H0v2.042h100.042v-23.042h57.556		c0.389,4.569,4.181,7.972,9.042,7.972c4.958,0,9.042-3.986,9.042-9.042C175.681,147.231,171.597,143.342,166.639,143.342z		 M166.639,159.384c-3.792,0-7-3.208-7-7c0-3.792,3.208-7,7-7s7,3.208,7,7C173.639,156.176,170.431,159.384,166.639,159.384z"/>	<path class="st0" d="M938.389,127.398c-4.764,0-8.556,3.597-9.042,8.361h-53.764V92.398v-0.972V72.759		c4.375-0.583,7.778-4.375,7.778-8.847c0-4.958-3.986-9.042-9.042-9.042c-4.958,0-9.042,3.986-9.042,9.042		c0,4.569,3.597,8.361,8.167,9.042v17.597h-37.819V-0.838h-2.042v93.236h39.764v45.403h56.097c0.583,4.375,4.375,7.583,8.847,7.583		c4.958,0,9.042-3.986,9.042-9.042C947.236,131.384,943.444,127.398,938.389,127.398z M867.417,64.009c0-3.792,3.208-7,7-7		s7,3.208,7,7c0,3.792-3.208,7-7,7S867.417,67.801,867.417,64.009z M938.389,143.342c-3.792,0-7-3.208-7-7s3.208-7,7-7s7,3.208,7,7		S942.181,143.342,938.389,143.342z"/>	<path class="st0" d="M1072.361,217.717c-4.375,0.583-7.583,4.375-7.583,8.847c0,4.958,3.986,9.042,9.042,9.042		c4.958,0,9.042-3.986,9.042-9.042c0-4.764-3.597-8.556-8.361-9.042v-22.556H1190v-2.042h-117.639V217.717z M1080.625,226.759		c0,3.792-3.208,7-7,7s-7-3.208-7-7c0-3.792,3.208-7,7-7C1077.417,219.759,1080.625,222.773,1080.625,226.759z"/></g></svg>