<?xml version="1.0" encoding="utf-8"?><svg version="1.1" id="Layer_1" xmlns="http://www.w3.org/2000/svg" xmlns:xlink="http://www.w3.org/1999/xlink" x="0px" y="0px"	 viewBox="0 0 1190 842" style="enable-background:new 0 0 1190 842;" xml:space="preserve"><style type="text/css">	.st0{opacity:0.09;fill:#2b343d;enable-background:new    ;}</style><g>	<path class="st0" d="M573.1,141.7h-49.4v25.7h49.4V141.7z M571.1,165.4h-45.4v-21.7h45.4V165.4z"/>	<path class="st0" d="M431,177.2h-49.4v25.7H431V177.2z M429,200.9h-45.4v-21.7H429V200.9z"/>	<path class="st0" d="M194,143.7V118h-23.7V94.3h-23.7V82.4H97.3v25.7H121V120h23.7v9.8H49.9v49.4h96.8v-35.5L194,143.7L194,143.7z		 M99.3,106.1V84.4h45.4v9.8H121V106H99.3V106.1z M144.7,96.3v9.8H123v-9.8H144.7z M123,118v-9.8h23.7V96.3h21.7V118h-23.7H123z		 M146.7,120h23.7H192v21.7h-45.4v-11.8V120H146.7z M144.7,177.2H51.9v-45.4h92.8v11.8L144.7,177.2L144.7,177.2z"/>	<path class="st0" d="M405.3,94.3h-47.4V120h49.4V96.3h94.8V46.9h-96.8V94.3z M405.3,118h-45.4V96.3h45.4l0,0V118z M407.3,48.9h92.8		v45.4h-92.8l0,0V48.9z"/>	<path class="st0" d="M478.4,106.1H429v25.7h23.7v11.8h49.4V118h-23.7V106.1z M431,129.8v-21.7h45.4v9.8h-23.7v11.8H431V129.8z		 M476.4,120v9.8h-21.7V120H476.4z M500.1,120v21.7h-45.4v-9.8h23.7V120H500.1z"/>	<path class="st0" d="M336.2,179.2v-2v-47.4h-47.4V120h23.7V94.3h-49.4v11.8h-23.7v23.7v2v45.4H192v25.7h49.4v-23.7h45.4v23.7h23.7		v23.7h49.4v-25.7h-23.7L336.2,179.2L336.2,179.2z M265.1,96.3h45.4V118h-21.7v-11.8h-23.7L265.1,96.3L265.1,96.3z M265.1,108.1		h21.7v9.8h-21.7V108.1z M241.4,108.1h21.7V120h23.7v9.8h-45.4L241.4,108.1L241.4,108.1z M239.4,200.9H194v-21.7h45.4V200.9z		 M241.4,177.2v-45.4h47.4h45.4v45.4h-47.4L241.4,177.2L241.4,177.2z M288.8,200.9v-21.7h45.4v21.7h-23.7H288.8z M357.9,202.9v21.7		h-45.4v-21.7h23.7H357.9z"/>	<path class="st0" d="M405.3,239h49.4v-25.7h-49.4V239z M407.3,215.4h45.4V237h-45.4V215.4z"/></g></svg>