<?xml version="1.0" encoding="utf-8"?><svg version="1.1" id="Layer_1" xmlns="http://www.w3.org/2000/svg" xmlns:xlink="http://www.w3.org/1999/xlink" x="0px" y="0px"	 viewBox="0 0 1190 842" style="enable-background:new 0 0 1190 842;" xml:space="preserve"><style type="text/css">	.st0{opacity:0.08;fill:#2b343d;enable-background:new    ;}</style><g>			<rect x="72.892" y="147.114" transform="matrix(0.7071 -0.7071 0.7071 0.7071 -94.7707 123.8308)" class="st0" width="58.399" height="58.399"/>	<polygon class="st0" points="544.6,108.5 550.7,114.6 567.7,97.5 550.7,80.5 548.6,82.6 518.2,52.3 476.9,93.6 518.2,134.9 	"/>			<rect x="398.487" y="64.886" transform="matrix(0.7071 -0.7071 0.7071 0.7071 63.2324 319.1275)" class="st0" width="36.7" height="36.7"/>			<rect x="234.808" y="113.274" transform="matrix(0.7071 -0.7071 0.7071 0.7071 -18.9242 217.5612)" class="st0" width="36.7" height="36.7"/>	<polygon class="st0" points="275.6,228.9 292.3,212.1 275.6,195.6 269.8,201.3 234.8,166.4 223.9,177.2 201.3,154.4 175.4,180.3 		198,203.1 195.7,205.4 184.7,194.3 155.6,223.5 184.7,252.6 208.8,228.5 234.8,254.6 268,221.3 	"/>	<polygon class="st0" points="117.2,263.6 94.4,286.3 89,280.8 117.2,252.6 83.4,218.9 49.8,252.6 80,282.8 68.8,294 85.6,310.7 		91.1,304.9 117.2,331 150.8,297.2 	"/>			<rect x="264.396" y="71.599" transform="matrix(0.707 -0.7072 0.7072 0.707 21.9848 219.6632)" class="st0" width="23.4" height="23.4"/>	<polygon class="st0" points="320.7,169.4 325.3,173.9 335.6,163.6 325.3,153.3 320.5,158 309.5,147.1 293,163.8 309.5,180.3 	"/>	<polygon class="st0" points="358.2,208.5 362.8,213.1 373.1,203 362.8,192.6 358.9,196.6 347.9,185.6 331.3,202.1 347.9,218.9 	"/>			<rect x="507.895" y="134.472" transform="matrix(0.7071 -0.7071 0.7071 0.7071 45.1191 419.1717)" class="st0" width="41.3" height="41.3"/>			<rect x="157.383" y="85.201" transform="matrix(0.7071 -0.7071 0.7071 0.7071 -22.7032 156.8912)" class="st0" width="41.3" height="41.3"/>			<rect x="442.399" y="93.627" transform="matrix(0.707 -0.7072 0.7072 0.707 61.2938 345.401)" class="st0" width="10.2" height="10.2"/>			<rect x="321.088" y="199.588" transform="matrix(0.7071 -0.7071 0.7071 0.7071 -49.198 290.6014)" class="st0" width="10.2" height="10.2"/>			<rect x="163.411" y="292.125" transform="matrix(0.7071 -0.7072 0.7072 0.7071 -160.8205 206.2338)" class="st0" width="10.201" height="10.201"/>			<rect x="208.897" y="280.101" transform="matrix(0.707 -0.7072 0.7072 0.707 -138.9966 234.9021)" class="st0" width="10.2" height="10.2"/>			<rect x="337.913" y="65.323" transform="matrix(0.7071 -0.7071 0.7071 0.7071 47.6459 270.4728)" class="st0" width="24.8" height="24.8"/>	<polygon class="st0" points="448.5,232.1 492.6,188 468.9,164.4 489.7,143.8 460.5,114.6 431.3,143.8 440,152.5 404.3,188 	"/>			<rect x="130.019" y="199.935" transform="matrix(0.7072 -0.7071 0.7071 0.7072 -107.681 161.08)" class="st0" width="21.201" height="21.201"/>			<rect x="305.909" y="95.782" transform="matrix(0.7071 -0.7071 0.7071 0.7071 15.8647 258.8641)" class="st0" width="29" height="29"/>			<rect x="63.896" y="80.973" transform="matrix(0.7071 -0.7071 0.7071 0.7071 -44.5477 83.3979)" class="st0" width="29" height="29"/>	<polygon class="st0" points="364.4,126.4 374.8,116.1 364.4,105.7 356.9,113.4 353.8,110.3 343.1,121 353.8,131.6 361.8,123.8 	"/>			<rect x="287.699" y="183.579" transform="matrix(0.7071 -0.7071 0.7071 0.7071 -48.5684 264.5024)" class="st0" width="14.6" height="14.6"/>			<rect x="161.084" y="257.596" transform="matrix(0.7071 -0.7071 0.7071 0.7071 -137.9914 196.6516)" class="st0" width="14.6" height="14.6"/>	<polygon class="st0" points="393.5,143.9 403.8,133.6 398.7,128.5 406.6,120.7 396.2,110.3 388.4,118.2 382,111.8 360.2,133.6 		370.7,143.9 360.2,154.4 382,176.2 403.8,154.4 	"/>			<rect x="459.111" y="75.987" transform="matrix(0.7071 -0.7071 0.7071 0.7071 77.7162 354.1965)" class="st0" width="14.6" height="14.6"/>			<rect x="212.986" y="83.502" transform="matrix(0.7071 -0.7071 0.7071 0.7071 -3.5178 191.6111)" class="st0" width="33.1" height="33.1"/>			<rect x="60.102" y="324.832" transform="matrix(0.7072 -0.7071 0.7071 0.7072 -218.93 154.1696)" class="st0" width="33.102" height="33.102"/>			<rect x="445.888" y="290.791" transform="matrix(0.7071 -0.7071 0.7071 0.7071 -79.8687 412.1608)" class="st0" width="23.4" height="23.4"/>	<polygon class="st0" points="158,343.5 161.1,340.4 186.1,365.3 216.2,335.3 230.2,349.4 253.6,325.9 230.2,302.5 210.5,322.3 		186.1,297.9 162.8,321.3 155.2,313.8 138.8,330 150.6,341.8 136.9,355.6 153.6,372.3 170.2,355.6 	"/>			<rect x="195.887" y="352.478" transform="matrix(0.7071 -0.7071 0.7071 0.7071 -201.7449 265.601)" class="st0" width="47.7" height="47.7"/>			<rect x="423.822" y="278.603" transform="matrix(0.707 -0.7072 0.7072 0.707 -74.9653 386.4597)" class="st0" width="10.2" height="10.2"/>			<rect x="266.012" y="371.118" transform="matrix(0.7071 -0.7072 0.7072 0.7071 -186.625 301.9297)" class="st0" width="10.201" height="10.201"/>			<rect x="311.491" y="359.091" transform="matrix(0.707 -0.7072 0.7072 0.707 -164.799 330.601)" class="st0" width="10.2" height="10.2"/>	<polygon class="st0" points="298.4,284.5 287.4,273.3 258.2,302.5 287.4,331.7 311.3,307.6 337.4,333.6 381.5,289.5 337.4,245.4 			"/>			<rect x="232.597" y="278.874" transform="matrix(0.7071 -0.7071 0.7071 0.7071 -133.4377 256.7008)" class="st0" width="21.1" height="21.1"/>			<rect x="390.277" y="262.706" transform="matrix(0.7072 -0.707 0.707 0.7072 -74.4882 360.1453)" class="st0" width="14.6" height="14.6"/>			<rect x="263.818" y="336.603" transform="matrix(0.7072 -0.707 0.707 0.7072 -163.7601 292.3746)" class="st0" width="14.6" height="14.6"/>			<rect x="246.27" y="397.591" transform="matrix(0.7072 -0.707 0.707 0.7072 -213.7571 302.024)" class="st0" width="23" height="23"/>			<rect x="162.702" y="403.827" transform="matrix(0.7072 -0.7071 0.7071 0.7072 -244.7381 249.847)" class="st0" width="33.102" height="33.102"/>	<polygon class="st0" points="812.8,91.5 817.1,95.9 829.7,83.9 817.8,71.1 816.3,72.6 794.8,50 763.8,79.2 793,110 	"/>			<rect x="706.995" y="57.106" transform="matrix(0.7273 -0.6863 0.6863 0.7273 148.0769 513.5922)" class="st0" width="26.7" height="26.7"/>			<rect x="609.394" y="58.794" transform="matrix(0.7272 -0.6864 0.6864 0.7272 122.3209 442.5825)" class="st0" width="17.2" height="17.2"/>			<rect x="631.876" y="118.198" transform="matrix(0.7272 -0.6864 0.6864 0.7272 87.6776 474.2191)" class="st0" width="17.2" height="17.2"/>			<rect x="735.788" y="100.284" transform="matrix(0.7273 -0.6863 0.6863 0.7273 125.6121 546.7095)" class="st0" width="30" height="30"/>			<rect x="738.587" y="78.523" transform="matrix(0.7272 -0.6864 0.6864 0.7272 146.0475 531.9442)" class="st0" width="7.4" height="7.4"/>			<rect x="648.092" y="153.183" transform="matrix(0.7273 -0.6863 0.6863 0.7273 70.0672 490.1114)" class="st0" width="7.4" height="7.4"/>	<polygon class="st0" points="672.3,76.9 681.2,86.2 675.9,91 673.8,88.7 665.8,96.2 673.3,104.3 679.4,98.7 681.2,100.7 		688.9,93.4 685.9,90.3 701.9,75.4 686.4,59 682.3,62.8 672.3,52.1 659.2,64.4 671.5,77.5 	"/>			<rect x="699.399" y="91.596" transform="matrix(0.7273 -0.6864 0.6864 0.7273 125.6735 510.1545)" class="st0" width="10.701" height="10.701"/>			<rect x="623.996" y="140.925" transform="matrix(0.7273 -0.6863 0.6863 0.7273 71.2265 471.8134)" class="st0" width="10.7" height="10.7"/>			<rect x="575.035" y="140.673" transform="matrix(0.029 -0.9996 0.9996 0.029 417.5002 728.3342)" class="st0" width="17.2" height="17.2"/>	<polygon class="st0" points="593.5,116.2 593.2,123.6 600.5,123.8 600.7,119.8 613,108.2 623.5,119.4 640,103.6 641.7,105.4 		657.1,91 642.7,75.6 632.5,85.1 624.8,76.9 608.7,92 600.5,83.3 581.2,101.6 595,116.2 	"/>			<rect x="600.06" y="138.034" transform="matrix(0.029 -0.9996 0.9996 0.029 444.5555 744.3878)" class="st0" width="10.7" height="10.7"/>			<rect x="682.083" y="110.209" transform="matrix(0.7272 -0.6864 0.6864 0.7272 105.7616 509.0447)" class="st0" width="22.5" height="22.5"/>			<rect x="751.126" y="65.952" transform="matrix(0.7273 -0.6864 0.6864 0.7273 157.3819 538.6637)" class="st0" width="10.701" height="10.701"/></g></svg>