<?xml version="1.0" encoding="utf-8"?><svg version="1.1" id="Layer_1" xmlns="http://www.w3.org/2000/svg" xmlns:xlink="http://www.w3.org/1999/xlink" x="0px" y="0px"	 viewBox="0 0 1190 842" style="enable-background:new 0 0 1190 842;" xml:space="preserve"><style type="text/css">	.st0{opacity:0.08;fill:#2b343d;}</style><g>	<path class="st0" d="M505.4,168.3l-56.3-56.5c-0.3-0.3-0.7-0.4-1.1-0.4h-53.8V57c0-0.6-0.4-1.2-0.9-1.4c-0.6-0.2-1.2-0.1-1.6,0.3		l-27.1,27l-27.4-27.5c-0.3-0.3-0.7-0.4-1.1-0.4h-55.6c-0.6,0-1.2,0.4-1.4,0.9s-0.1,1.2,0.3,1.6l55.4,55.5c0,0.1,0,0.2,0,0.3v55.6		c0,0.6,0.4,1.2,0.9,1.4c0.2,0.1,0.4,0.1,0.6,0.1c0.4,0,0.8-0.2,1.1-0.4l55.1-54.9l55.3,55.4c0.3,0.3,0.7,0.4,1.1,0.4h55.6		c0.6,0,1.2-0.4,1.4-0.9S505.8,168.7,505.4,168.3z M391.2,60.6v49L366.7,85L391.2,60.6z M388.8,111.4h-48.6l24.4-24.3L388.8,111.4z		 M335.5,58l27,27l-25.8,25.7L284.1,58H335.5z M337.7,114.4h51l-51,50.9V114.4z M449.4,167.9L396,114.4h51.4l53.3,53.5H449.4z"/>	<path class="st0" d="M281.2,223.8c-0.3-0.3-0.7-0.4-1.1-0.4h-52.5l53.9-53.8c0.3-0.3,0.4-0.7,0.4-1.1v-55.6c0-0.6-0.4-1.2-0.9-1.4		c-0.6-0.2-1.2-0.1-1.6,0.3L223,168.2c-0.3,0.3-0.4,0.7-0.4,1.1v52.6l-52.8-53c0-0.1,0.1-0.2,0.1-0.4v-54.1H224		c0.6,0,1.2-0.4,1.4-0.9s0.1-1.2-0.3-1.6l-56.3-56.5c-0.3-0.3-0.7-0.4-1.1-0.4h-53.6V0.5c0-0.6-0.4-1.2-0.9-1.4		c-0.6-0.2-1.2-0.1-1.6,0.3L84.2,26.5L56.7-1.1c-0.3-0.3-0.7-0.4-1.1-0.4H0c-0.6,0-1.2,0.4-1.4,0.9C-1.6,0-1.5,0.6-1.1,1.1		l55.5,55.7c0,0,0,0,0,0.1v55.6c0,0.6,0.4,1.2,0.9,1.4c0.2,0.1,0.4,0.1,0.6,0.1c0.4,0,0.8-0.2,1.1-0.4l55-54.8l54.1,54.3l-54.7,54.6		c-0.4,0.1-0.7,0.4-0.9,0.8v0.1c-0.1,0.2-0.2,0.5-0.2,0.8V225l0,0l-55.4,55.2c-0.3,0.3-0.4,0.7-0.4,1.1v55.6c0,0.6,0.4,1.2,0.9,1.4		c0.2,0.1,0.4,0.1,0.6,0.1c0.4,0,0.8-0.2,1.1-0.4l56.5-56.3c0.3-0.3,0.4-0.7,0.4-1.1V225l0,0l25.9-25.9l27.3,27.4		c0.3,0.3,0.7,0.4,1.1,0.4h55.6c0.2,0,0.3,0,0.4-0.1l55.5,55.6c0.3,0.3,0.7,0.4,1.1,0.4h55.6c0.6,0,1.2-0.4,1.4-0.9s0.1-1.2-0.3-1.6		L281.2,223.8z M225.5,169.9l53.5-53.3V168l-53.5,53.3V169.9z M166.8,167.4h-51l51-50.9V167.4z M164.3,170.4l-24.4,24.4l-24.3-24.4		H164.3z M110.9,4.1v49.2L86.3,28.7L110.9,4.1z M108.3,55H59.9l24.3-24.2L108.3,55z M55,1.5l27.1,27.1L56.3,54.3L3.6,1.5H55z		 M57.5,58h51l-51,50.9V58z M166.9,58l53.3,53.5h-51.4L115.6,58H166.9z M110.9,279.9l-53.5,53.3v-51.4l53.5-53.3V279.9z		 M113.3,221.2v-48.9l24.4,24.5L113.3,221.2z M168.9,223.8l-26.9-27l25.8-25.7l52.5,52.7H168.9z M281.4,279.8l-53.3-53.5h51.4		l53.3,53.5H281.4z"/></g></svg>