<?xml version="1.0" encoding="utf-8"?><svg version="1.1" id="Layer_1" xmlns="http://www.w3.org/2000/svg" xmlns:xlink="http://www.w3.org/1999/xlink" x="0px" y="0px"	 viewBox="0 0 1190 842" style="enable-background:new 0 0 1190 842;" xml:space="preserve"><style type="text/css">	.st0{opacity:0.09;fill:#2b343d;enable-background:new    ;}</style><path class="st0" d="M1053.628,104.626c65.501-30.49,107.452-7.884,125.367,1.769c5.628,3.032,8.726,4.698,10.625,3.921	c0.451-0.186,1.049-0.604,1.336-1.544c0.162-0.528-0.136-1.087-0.664-1.249c-0.531-0.16-1.088,0.136-1.248,0.665	c-0.071,0.231-0.147,0.263-0.185,0.278c-1.02,0.424-4.857-1.645-8.916-3.831c-18.179-9.795-60.751-32.734-127.159-1.822	c-40.947,19.061-74.847,73.965-104.756,122.406c-8.007,12.968-15.89,25.735-23.705,37.5c-5.604-3.354-10.692-6.988-15.308-10.873	c4.869-8.806,9.828-18.028,14.909-27.478c32.265-60.006,68.835-128.018,115.712-148.88c81.589-36.312,128.993,3.671,144.57,16.81	c3.818,3.22,4.856,4.045,5.892,3.745c0.413-0.122,0.727-0.439,0.857-0.87c0.162-0.528-0.136-1.087-0.664-1.249	c-0.26-0.079-0.521-0.049-0.743,0.064c-0.727-0.414-2.349-1.782-4.053-3.219c-7.656-6.458-23.589-19.896-48.033-27.171	c-30.23-8.997-63.417-5.612-98.639,10.062c-47.503,21.14-84.244,89.472-116.661,149.76c-5.008,9.314-9.896,18.404-14.692,27.087	c-5.334-4.655-10.046-9.64-14.252-14.885c1.798-3.777,3.612-7.599,5.442-11.458c34.444-72.613,73.485-154.915,126.987-177.815	c56.581-24.219,98.007-13.295,122.795,0.132c26.89,14.566,40.585,35.144,40.721,35.349c0.301,0.461,0.921,0.591,1.384,0.289	c0.462-0.303,0.591-0.922,0.289-1.384c-0.138-0.21-14.058-21.152-41.358-35.967c-25.188-13.669-67.255-24.81-124.617-0.258	c-54.198,23.198-93.41,105.863-128.007,178.797c-1.687,3.557-3.36,7.084-5.02,10.572c-15.827-20.482-24.364-44.696-32.717-68.411	c-11.854-33.654-23.053-65.441-54.709-80.019c-9.094-4.188-18.271-5.813-27.647-4.865c-1.919-0.12-3.837-0.126-5.756-0.029	c-1.968-0.237-3.948-0.348-5.939-0.36c-1.944-0.354-3.907-0.609-5.893-0.757c-1.539-0.393-3.096-0.728-4.671-1.002	c-1.797-0.642-3.648-1.209-5.551-1.706c-2.06-0.937-4.185-1.797-6.396-2.561c-1.318-0.709-2.662-1.394-4.043-2.042	c-14.921-9.925-35.148-16.645-62.57-18.963c-80.694-6.818-101.6,76.534-118.387,143.513c-1.459,5.821-2.889,11.52-4.325,17.031	c-6.418-1.203-12.882-2.632-19.42-4.081c-30.099-6.671-61.223-13.569-98.471-2.493c-2.287,0.68-4.538,1.5-6.76,2.427	c-22.879-15.156-50.396-28.622-82.344-40.253c-44.057-16.04-96.584-28.657-156.123-37.501C88.772,116.752,1.047,117.88,0.171,117.89	c-0.552,0.008-0.993,0.463-0.985,1.015c0.009,0.553,0.489,0.996,1.015,0.985c0.872-0.014,88.436-1.136,189.616,13.894	c59.406,8.825,111.802,21.409,155.732,37.402c31.302,11.396,58.317,24.55,80.847,39.327c-2.933,1.336-5.813,2.867-8.642,4.58	c-29.316-13.487-63.806-23.397-101.581-34.242c-21.603-6.202-43.941-12.615-66.734-20.137	C126.42,120.116,1.39,125.053,0.142,125.106c-0.551,0.024-0.979,0.491-0.955,1.043c0.024,0.551,0.508,0.97,1.042,0.955	c1.247-0.052,125.908-4.975,248.583,35.51c22.831,7.535,45.188,13.953,66.81,20.16c37.178,10.673,71.167,20.435,100.095,33.583	c-2.741,1.754-5.434,3.678-8.089,5.73c-13.156-3.384-27.255-6.19-42.243-9.171c-35.911-7.141-76.614-15.235-120.252-34.739	c-62.888-28.108-126.147-39.08-168.141-43.333c-45.504-4.61-76.565-2.545-76.875-2.523c-0.551,0.038-0.966,0.516-0.928,1.067	c0.039,0.551,0.518,0.975,1.067,0.928c1.229-0.086,124.169-7.9,244.061,45.687c43.843,19.596,84.664,27.713,120.678,34.875	c14.396,2.863,27.959,5.569,40.645,8.774c-2.518,2.023-5,4.164-7.452,6.402c-5.22-0.26-10.589-0.457-16.139-0.658	c-40.84-1.478-87.129-3.152-141.233-33.75c-61.521-34.792-123.682-48.195-164.995-53.312c-44.772-5.545-75.422-2.824-75.726-2.796	c-0.55,0.051-0.955,0.538-0.904,1.087c0.051,0.55,0.534,0.952,1.087,0.904c0.302-0.027,30.737-2.729,75.296,2.79	c41.134,5.095,103.021,18.438,164.257,53.069c54.529,30.838,101.077,32.522,142.145,34.008c4.853,0.176,9.564,0.349,14.159,0.563	c-2.292,2.157-4.559,4.392-6.803,6.691c-1.169,0.194-2.342,0.39-3.519,0.587c-41.926,7.009-89.447,14.956-149.325-26.118	c-60.229-41.313-121.284-57.158-161.896-63.175c-44.017-6.522-74.219-3.223-74.518-3.189c-0.549,0.062-0.943,0.558-0.881,1.106	s0.556,0.944,1.106,0.881c0.298-0.033,30.294-3.304,74.07,3.191c40.386,5.991,101.098,21.755,160.986,62.835	c36.728,25.192,68.811,32.153,97.817,32.151c18.81,0,36.33-2.929,52.969-5.71c0.287-0.048,0.572-0.095,0.859-0.143	c-2.033,2.135-4.048,4.316-6.05,6.531c-20.402,8.063-41.542,16.074-65.263,16.352c-28.016,0.325-55.366-10.582-83.541-33.356	c-59.031-47.718-118.97-66.01-158.856-72.954c-43.239-7.527-72.943-3.707-73.238-3.667c-0.547,0.073-0.932,0.577-0.858,1.124	c0.074,0.548,0.574,0.932,1.124,0.858c0.292-0.04,29.689-3.819,72.629,3.655c39.654,6.903,99.244,25.091,157.943,72.539	c60.805,49.151,106.715,34.576,147.089,18.768c-1.693,1.91-3.375,3.84-5.051,5.779c-40.53,25.88-83.128,49.211-145.129-8.629	c-57.935-54.048-116.748-74.793-155.884-82.679c-42.441-8.551-71.593-4.243-71.882-4.198c-0.546,0.084-0.92,0.594-0.836,1.14	c0.083,0.546,0.594,0.924,1.14,0.836c0.288-0.043,29.165-4.299,71.278,4.201c38.858,7.843,97.262,28.464,154.82,82.161	c29.435,27.458,57.337,39.204,85.296,35.909c20.533-2.42,39.025-12.482,56.761-23.571c-1.106,1.297-2.209,2.595-3.31,3.892	c-18.446,16.527-37.605,32.385-58.836,37.169c-26.426,5.951-53.543-6.277-82.902-37.39	c-56.934-60.333-114.613-83.532-152.974-92.369c-41.613-9.585-70.172-4.807-70.455-4.758c-0.544,0.095-0.908,0.613-0.814,1.157	c0.095,0.544,0.611,0.909,1.157,0.814c0.28-0.049,28.524-4.76,69.77,4.761c38.064,8.787,95.31,31.84,151.862,91.771	c27.171,28.795,50.355,39.455,71.094,39.452c23.462-0.003,43.789-13.655,63.182-30.133c-22.449,26.138-44.368,48.798-71.132,48.798	c-0.033,0-0.071,0-0.104,0c-20.634-0.045-42.207-13.79-65.95-42.02c-56.019-66.607-112.557-92.26-150.122-102.052	c-40.766-10.626-68.687-5.382-68.965-5.329c-0.542,0.106-0.895,0.631-0.79,1.173c0.106,0.542,0.629,0.894,1.173,0.79	c0.274-0.053,27.841-5.21,68.197,5.333c37.253,9.732,93.339,35.221,148.976,101.373c24.145,28.708,46.216,42.687,67.476,42.733	c0.038,0,0.071,0,0.108,0c30.682-0.002,54.75-28.362,80.225-58.385c0.421-0.496,0.842-0.993,1.264-1.489	c2.048-1.835,4.09-3.68,6.128-5.522c3.155-2.852,6.337-5.728,9.546-8.569c5.639-3.616,11.17-7.114,16.682-10.323	c6.067-2.244,12.041-4.25,17.98-5.805c6.732-0.535,13.308-0.642,19.725-0.05c2.885,0.718,5.73,1.529,8.526,2.478	c3.275,1.112,6.326,2.138,9.229,3.084c5.528,3.213,10.306,5.803,14.61,7.899c4.849,3.741,9.267,6.795,13.404,9.267	c15.612,14.295,28.302,20.019,38.543,17.435c16.354-4.125,25.128-28.699,33.391-59.883c0.052-0.133,0.104-0.266,0.155-0.4	c0.007-0.012,0.014-0.024,0.02-0.036c0.074-0.089,0.147-0.181,0.22-0.27c0.197-0.092,0.394-0.188,0.591-0.281	c0.077,0,0.154-0.001,0.231-0.001c24.201,4.294,47.843,4.944,72.545-9.318c22.107-12.764,42.891-36.19,62.989-58.846	c21.25-23.954,41.813-47.128,63.505-58.498c4.557,5.568,8.365,11.81,11.438,18.737c12.578,28.359,11.961,65.044,11.364,100.522	c-0.762,45.24-1.481,87.971,22.704,115.417c6.616,7.509,13.234,11.194,20.146,11.194c0.926,0,1.856-0.066,2.793-0.198	c4.6-0.647,9.168-2.923,13.735-6.576c0.903,0.101,1.81,0.158,2.72,0.158c1.197,0,2.4-0.087,3.611-0.261	c4.927-0.707,9.792-2.855,14.631-6.217c0.572,0.031,1.145,0.047,1.72,0.047c1.487,0,2.984-0.106,4.488-0.316	c5.215-0.73,10.377-2.762,15.505-5.868c0.347,0.009,0.693,0.026,1.04,0.026c1.765,0,3.539-0.115,5.322-0.345	c5.659-0.73,11.228-2.633,16.735-5.484c0.242,0.003,0.483,0.017,0.724,0.017c7.706,0,15.505-1.672,23.438-5.003	c0.704,0.021,1.408,0.042,2.108,0.042c8.198-0.001,16.169-1.436,23.955-3.971c2.305,0.16,4.611,0.254,6.919,0.254	c7.032,0,14.082-0.751,21.168-2.237c6.654,0.93,13.27,1.414,19.853,1.414c3.56,0,7.111-0.152,10.655-0.424	c37.309,9.21,69.718,8.187,96.863-3.144c38.035-15.877,65.851-51.857,82.675-106.94c0.162-0.528-0.136-1.087-0.664-1.249	c-0.531-0.162-1.088,0.137-1.248,0.665c-16.643,54.486-44.074,90.042-81.533,105.678c-25.359,10.586-55.432,12.028-89.912,4.39	c5.818-0.706,11.619-1.773,17.408-3.209c34.927-8.667,64.716-29.574,88.651-46.374c35.394-24.841,57.58-41.682,67.298-73.499	c0.162-0.528-0.136-1.087-0.664-1.249c-0.526-0.163-1.088,0.136-1.248,0.665c-9.547,31.252-30.436,47.109-66.534,72.446	c-23.8,16.704-53.419,37.493-87.984,46.07c-7.622,1.891-15.264,3.13-22.942,3.735c-4.546-1.129-9.172-2.421-13.866-3.857	c26.605-9.82,50.584-28.214,73.814-46.039c13.135-10.08,25.541-19.6,38.104-27.384c15.112-9.364,27.891-15.696,39.164-21.284	c21.96-10.884,36.468-18.074,42.157-36.701c0.162-0.528-0.136-1.087-0.664-1.249c-0.531-0.162-1.088,0.136-1.248,0.665	c-5.438,17.801-18.874,24.46-41.133,35.493c-10.754,5.329-24.137,11.962-39.329,21.375c-12.648,7.837-25.093,17.387-38.269,27.498	c-23.839,18.294-48.472,37.19-75.79,46.645c-4.907-1.562-9.903-3.308-14.968-5.2c19.229-12.289,37.519-29.669,55.565-46.832	c19.585-18.629,39.838-37.892,60.504-49.535c27.232-15.343,48.652-20.294,64.292-23.91c17.025-3.936,27.303-6.312,31.04-18.549	c0.162-0.528-0.136-1.087-0.664-1.249c-0.531-0.163-1.088,0.136-1.248,0.665c-3.4,11.133-13.254,13.411-29.578,17.185	c-15.759,3.643-37.34,8.631-64.824,24.116c-20.882,11.765-41.226,31.115-60.9,49.828c-18.235,17.344-36.97,35.158-56.504,47.413	c-5.074-1.937-10.229-4.043-15.457-6.308c14.209-13.117,28.181-29.36,42.672-46.212c24.407-28.384,49.646-57.734,77.169-72.107	c39.123-20.431,67.167-19.713,85.726-19.231c12.699,0.325,21.095,0.543,23.61-7.696c0.162-0.528-0.136-1.087-0.664-1.249	c-0.531-0.161-1.088,0.137-1.248,0.665c-2.072,6.784-9.022,6.603-21.647,6.28c-17.621-0.453-47.119-1.211-86.702,19.458	c-27.864,14.551-53.229,44.049-77.76,72.577c-14.501,16.864-28.736,33.416-43.152,46.642c-5.216-2.292-10.499-4.727-15.866-7.343	c10.742-13.037,21.496-27.943,32.469-43.164c28.139-39.032,57.236-79.393,91.236-96.072c51.687-25.358,86.917-15.583,105.845-10.33	c9.528,2.644,15.823,4.391,17.489-1.062c0.162-0.528-0.136-1.087-0.664-1.249c-0.531-0.162-1.088,0.136-1.248,0.665	c-1.052,3.443-5.37,2.403-15.043-0.281c-19.184-5.323-54.89-15.231-107.26,10.461c-34.449,16.9-63.695,57.467-91.978,96.698	c-11.056,15.336-21.887,30.352-32.682,43.422c-3.836-1.89-7.703-3.846-11.616-5.9c-1.513-0.794-2.982-1.612-4.425-2.444	c7.82-11.772,15.694-24.523,23.69-37.473C979.491,178.067,1013.224,123.433,1053.628,104.626z M923.217,264.377	c-2.295,3.429-4.584,6.769-6.868,9.998c-0.663-0.371-1.325-0.735-1.989-1.115c-4.568-2.612-8.76-5.435-12.653-8.422	c2.104-3.665,4.223-7.429,6.358-11.276C912.656,257.431,917.691,261.05,923.217,264.377z M938.049,297.251	c-4.299-0.959-8.6-2.196-12.907-3.725c2.727-2.605,5.447-5.388,8.163-8.324c4.663,2.111,9.3,4.027,13.907,5.709	C944.173,293.217,941.12,295.338,938.049,297.251z M949.445,291.691c4.289,1.505,8.558,2.834,12.804,3.966	c-3.213,1.457-6.408,2.711-9.587,3.754c-3.952-0.288-7.901-0.815-11.851-1.584C943.71,295.947,946.586,293.895,949.445,291.691z	 M926.65,303.299c-3.765-0.124-7.516-0.556-11.259-1.289c2.718-2.123,5.426-4.443,8.126-6.949c4.027,1.47,8.049,2.699,12.069,3.678	C932.626,300.468,929.649,301.998,926.65,303.299z M901.998,308.417c-3.48-0.095-6.996-0.543-10.555-1.389	c2.614-2.392,5.223-5.024,7.829-7.867c3.855,1.631,7.657,2.914,11.411,3.886C907.799,305.097,904.906,306.893,901.998,308.417z	 M878.989,314.143c-3.349-0.138-6.674-0.728-9.989-1.751c2.525-2.681,5.049-5.647,7.58-8.872c3.6,1.86,7.209,3.331,10.832,4.433	C884.607,310.329,881.801,312.403,878.989,314.143z M857.287,320.236c-3.304-0.255-6.579-1.073-9.845-2.464	c2.461-3.023,4.928-6.385,7.407-10.049c3.52,2.339,7.034,4.181,10.558,5.546C862.698,315.961,859.994,318.3,857.287,320.236z	 M483.61,257.976c-0.945-0.87-1.899-1.767-2.867-2.702c0.325,0.113,0.65,0.227,0.972,0.334c31.632,10.53,50.15-3.184,66.079-27.652	c-7.85,17.97-16.482,31.559-28.367,36.458c-8.333,3.436-17.896,2.488-29.233-2.897C488.073,260.509,485.885,259.33,483.61,257.976z	 M395.368,241.958c1.196-0.961,2.396-1.903,3.599-2.831c1.05-0.161,2.096-0.317,3.14-0.468c-1.327,0.735-2.654,1.493-3.98,2.264	C397.209,241.263,396.289,241.608,395.368,241.958z M884.562,289.021c-0.804-0.52-1.607-1.054-2.411-1.602	c-3.792-2.589-7.263-5.369-10.477-8.3c2.114-3.984,4.242-8.117,6.389-12.372c4.01,4.071,8.468,7.893,13.418,11.44	C889.16,281.963,886.855,285.581,884.562,289.021z M893.106,279.341c1.331,0.916,2.687,1.818,4.09,2.693	c3.141,1.961,6.274,3.756,9.401,5.422c-2.605,3.289-5.206,6.395-7.807,9.289c-4.185-1.837-8.367-4.06-12.551-6.667	C888.518,286.664,890.805,283.078,893.106,279.341z M750.556,81.895c-0.145-0.143-0.289-0.287-0.435-0.429	c0.073-0.005,0.146-0.011,0.219-0.016c0.171,0.125,0.342,0.251,0.512,0.378C750.753,81.85,750.654,81.873,750.556,81.895z	 M477.275,251.835c-1.299-1.319-2.618-2.692-3.958-4.122c0.26,0.055,0.52,0.112,0.78,0.165c6.989,1.424,13.441,2.102,19.456,2.102	c22.75-0.002,39.164-9.707,54.019-25.352c-4.651,7.421-9.467,13.892-14.759,19.078c-13.93,13.651-29.965,16.829-50.466,10.005	C480.699,253.162,479.015,252.538,477.275,251.835z M462.653,242.621c-1.329-1.114-2.686-2.2-4.058-3.273	c1.486,0.164,2.963,0.318,4.438,0.463c1.475,1.463,2.919,2.936,4.323,4.422c-1.366-0.361-2.747-0.747-4.155-1.157	C463.018,242.924,462.838,242.777,462.653,242.621z M446.647,235.948c-1.916-0.954-3.857-1.875-5.835-2.749	c1.785-0.139,3.535-0.25,5.265-0.347c1.818,1.193,3.61,2.408,5.366,3.656c-0.193-0.023-0.38-0.045-0.574-0.068	C449.484,236.276,448.06,236.112,446.647,235.948z M426.721,232.796c-1.881-0.311-3.784-0.589-5.705-0.839	c0.049-0.018,0.097-0.039,0.146-0.057c1.899-0.709,3.823-1.36,5.759-1.979c1.919,0.664,3.814,1.352,5.682,2.068	c-1.224,0.144-2.453,0.297-3.688,0.469C428.182,232.559,427.452,232.676,426.721,232.796z M430.161,228.93	c2.21-0.644,4.439-1.234,6.686-1.763c2.17,1.255,4.306,2.537,6.399,3.856c-2.092,0.14-4.215,0.302-6.374,0.508	C434.667,230.628,432.437,229.753,430.161,228.93z M829.4,180.771c-7.151-35.791-13.906-69.597-39.766-89.387	c-4.337-3.319-8.735-5.878-13.222-7.783c5.738,1.376,11.401,3.81,17.058,7.476c27.104,17.563,35.24,50.285,43.855,84.929	c7.936,31.917,16.105,64.692,39.276,89.208c-2.164,4.304-4.31,8.482-6.437,12.507C843.753,252.547,836.467,216.132,829.4,180.771z	 M463.93,237.887c-1.879-1.85-3.814-3.681-5.805-5.493c0.238-0.005,0.488-0.013,0.724-0.018	c36.707-0.803,63.209-2.823,87.819-12.437c-21.593,14.98-45.127,21.202-80.021,18.202	C465.74,238.063,464.836,237.974,463.93,237.887z M742.212,77.425c-14.39,0.008-30.194,3.777-47.653,9.487	c-37.104,12.101-63.475,43.279-86.742,70.787l-3.312,3.912c-16.209,19.111-29.866,34.782-43.451,46.896	c6.517-8.616,13.017-18.211,19.947-28.451c6.112-9.032,12.434-18.372,19.482-28.147c21.742-30.157,48.408-63.038,89.834-71.492	c21.035-4.309,37.856-5.407,51.794-3.071C742.145,77.372,742.178,77.399,742.212,77.425z M606.03,162.905l3.313-3.914	c23.095-27.305,49.271-58.252,85.836-70.178c18.304-5.987,34.74-9.814,49.575-9.325c0.168,0.142,0.336,0.283,0.503,0.426	c-13.912,1.842-29.042,7.523-46.057,15.468c-28.523,13.287-51.871,38.033-72.47,59.866c-5.734,6.079-11.151,11.82-16.574,17.236	c-17.624,17.601-33.067,29.775-48.551,38.235C575.517,198.427,589.454,182.45,606.03,162.905z M689.916,78.458	c-42.13,8.598-69.092,41.818-91.056,72.282c-7.065,9.799-13.395,19.151-19.516,28.196c-6.77,10.003-13.048,19.277-19.247,27.576	c3.01-5.75,6.028-11.776,9.134-17.98c7.753-15.487,15.771-31.502,25.698-47.62c18.211-29.772,44.958-64.509,90.531-68.905	c20.967-2.033,37.915-1.243,51.862,2.656C724.193,73.296,708.698,74.61,689.916,78.458z M458.805,230.376	c-0.928,0.02-1.884,0.045-2.848,0.071c-2.129-1.885-4.32-3.749-6.57-5.591c0.609-0.082,1.215-0.174,1.825-0.248	c19.384-2.347,36.725-3.018,52.023-3.61c15.512-0.6,29.804-1.153,43.696-3.352C522.243,227.523,495.733,229.568,458.805,230.376z	 M453.033,230.538c-2.076,0.07-4.217,0.163-6.412,0.281c-2.262-1.472-4.569-2.906-6.922-4.3c2.317-0.491,4.652-0.912,6.999-1.278	C448.866,226.987,450.977,228.753,453.033,230.538z M449.43,232.681c1.984-0.089,3.924-0.159,5.797-0.213	c1.885,1.682,3.718,3.381,5.504,5.096c-1.729-0.183-3.468-0.376-5.228-0.58C453.522,235.51,451.494,234.08,449.43,232.681z	 M466.15,240.103c0.109,0.01,0.217,0.021,0.326,0.03c35.473,3.05,59.348-3.25,81.226-18.424	c-18.884,20.716-39.541,31.071-73.206,24.209c-1.189-0.242-2.378-0.506-3.572-0.788C469.38,243.439,467.784,241.764,466.15,240.103z	 M611.57,173.9c5.443-5.437,10.87-11.189,16.615-17.278c20.476-21.703,43.683-46.301,71.859-59.426	c17.56-8.198,33.056-13.948,47.231-15.478c0.282,0.26,0.571,0.515,0.849,0.78c-13.632,3.607-28.136,11.228-44.282,21.37	c-20.998,13.17-39.404,31.859-57.205,49.933c-10.644,10.807-20.696,21.014-30.821,29.559c-18.765,15.719-35.62,24.168-52.782,28.897	C578.5,203.722,593.954,191.494,611.57,173.9z M756.139,82.896c0.149,0.095,0.294,0.195,0.442,0.291	c-0.198,0.061-0.397,0.121-0.595,0.184c-0.149-0.128-0.295-0.259-0.445-0.386C755.741,82.953,755.94,82.926,756.139,82.896z	 M761.835,83.894c0.115,0.061,0.232,0.12,0.346,0.182c-0.176,0.066-0.352,0.129-0.528,0.197c-0.116-0.088-0.232-0.175-0.348-0.262	C761.482,83.969,761.659,83.934,761.835,83.894z M767.298,84.345c5.616,2.453,10.967,5.9,16.071,10.515	c23.419,21.174,28.649,55.387,34.187,91.608c6.087,39.813,12.379,80.932,43.913,106.965c-2.392,4.094-4.765,7.945-7.123,11.52	c-1.462-1.035-2.927-2.156-4.396-3.367c-31.252-25.777-35.862-68.537-40.32-109.889c-4.033-37.41-7.842-72.745-29.846-96.321	c-4.017-4.304-8.307-7.922-12.957-10.895C766.984,84.435,767.141,84.391,767.298,84.345z M819.532,186.167	c-5.593-36.583-10.875-71.138-34.821-92.79c-4.555-4.118-9.29-7.339-14.219-9.775c6.153,1.867,12.105,4.915,17.928,9.371	c25.26,19.332,31.943,52.779,39.02,88.19c7.167,35.869,14.565,72.808,41.753,98.391c-2.253,4.224-4.486,8.273-6.703,12.121	C831.764,266.098,825.544,225.49,819.532,186.167z M870.7,280.945c3.175,2.862,6.599,5.581,10.324,8.125	c0.812,0.555,1.62,1.08,2.428,1.604c-2.479,3.662-4.945,7.107-7.4,10.308c-3.294-1.805-6.626-3.951-10.002-6.48	c-0.685-0.513-1.342-1.045-2.005-1.572C866.249,289.119,868.467,285.117,870.7,280.945z M879.018,264.849	c2.055-4.098,4.126-8.306,6.216-12.604c4.122,4.641,8.705,9.038,13.864,13.123c-2.206,3.823-4.395,7.534-6.57,11.108	C887.531,272.882,883.043,268.996,879.018,264.849z M877.563,263.299c-22.453-24.132-30.489-56.373-38.297-87.775	c-8.713-35.038-16.942-68.132-44.708-86.125c-4.008-2.597-8.013-4.589-12.037-6.059c5.306,0.989,10.626,2.892,16,5.835	c28.972,15.864,38.566,47.903,48.725,81.824c8.389,28.015,16.991,56.705,36.557,79.615	C881.705,254.941,879.625,259.176,877.563,263.299z M685.268,70.017c-46.452,4.481-73.591,39.684-92.043,69.849	c-9.972,16.19-18.009,32.245-25.782,47.771c-2.622,5.239-5.163,10.305-7.674,15.173c1.138-3.127,2.282-6.308,3.441-9.53	c7.209-20.045,15.381-42.765,26.158-63.361c23.563-45.22,52.557-66.297,91.244-66.333c0.096,0,0.19,0,0.285,0	c19.612,0,36.032,2.426,49.659,7.421C717.867,68.574,702.97,68.299,685.268,70.017z M503.159,218.999	c-15.337,0.593-32.721,1.266-52.187,3.623c-1.241,0.15-2.478,0.321-3.713,0.505c-2.313-1.849-4.691-3.674-7.127-5.479	c1.147-0.296,2.292-0.574,3.434-0.817c30.65-6.516,57.109-4.34,80.452-2.42c7.31,0.602,14.407,1.183,21.38,1.506	C532.219,217.867,518.451,218.407,503.159,218.999z M444.585,223.565c-2.486,0.423-4.955,0.916-7.406,1.476	c-2.405-1.379-4.86-2.716-7.354-4.024c2.629-1.03,5.251-1.924,7.863-2.683C440.045,220.058,442.344,221.801,444.585,223.565z	 M434.312,225.728c-2.48,0.625-4.938,1.319-7.37,2.084c-2.314-0.792-4.655-1.558-7.039-2.286c2.498-1.294,4.995-2.467,7.489-3.521	C429.74,223.214,432.043,224.457,434.312,225.728z M423.781,228.844c-1.112,0.381-2.219,0.772-3.319,1.182	c-1.209,0.451-2.41,0.934-3.609,1.431c-2.049-0.224-4.122-0.421-6.219-0.595c0.817-0.521,1.635-1.032,2.455-1.528	c1.432-0.866,2.866-1.683,4.3-2.472C419.546,227.501,421.683,228.156,423.781,228.844z M413.097,233.089	c-1.981,0.902-3.953,1.854-5.919,2.861c-1.619,0.206-3.244,0.424-4.879,0.659c1.859-1.371,3.726-2.696,5.602-3.959	C409.653,232.78,411.381,232.929,413.097,233.089z M413.13,235.271c1.334-0.618,2.672-1.203,4.014-1.767	c1.221,0.136,2.434,0.283,3.637,0.44c-1.386,0.31-2.774,0.651-4.161,1.013C415.46,235.05,414.297,235.154,413.13,235.271z	 M432.909,233.965c1.229-0.144,2.451-0.273,3.666-0.392c1.333,0.551,2.655,1.115,3.961,1.699c-1.05-0.112-2.085-0.231-3.146-0.335	c-0.126-0.012-0.254-0.019-0.38-0.031C435.652,234.571,434.285,234.257,432.909,233.965z M454.276,240.04	c-0.886-0.519-1.795-1.004-2.695-1.502c1.06,0.125,2.118,0.251,3.16,0.372c1.153,0.863,2.292,1.74,3.416,2.63	c-0.949-0.3-1.914-0.609-2.896-0.928C454.932,240.421,454.61,240.236,454.276,240.04z M467.041,246.22	c0.948,0.249,1.889,0.486,2.826,0.712c0.89,0.971,1.77,1.915,2.644,2.84c-0.786-0.362-1.584-0.738-2.403-1.135	C469.106,247.862,468.083,247.056,467.041,246.22z M617.104,184.89c10.197-8.606,20.281-18.846,30.958-29.686	c17.72-17.992,36.043-36.596,56.844-49.643c16.443-10.328,31.134-18.012,44.894-21.409c0.347,0.351,0.695,0.702,1.035,1.06	c-13.543,5.375-27.445,14.991-42.341,27.152c-14.131,11.528-27.632,25.519-40.688,39.05c-15.826,16.401-30.775,31.894-46.325,42.826	c-19.951,13.961-38.516,18.737-57.507,19.722C581.235,209.119,598.399,200.559,617.104,184.89z M752.225,83.592	c0.241-0.051,0.48-0.09,0.72-0.138c0.274,0.221,0.555,0.435,0.825,0.66c-0.264,0.093-0.528,0.184-0.792,0.28	C752.729,84.125,752.478,83.858,752.225,83.592z M755.54,85.644c0.315,0.281,0.624,0.568,0.935,0.854	c-0.379,0.18-0.759,0.365-1.139,0.553c-0.291-0.345-0.592-0.683-0.89-1.024C754.811,85.899,755.176,85.765,755.54,85.644z	 M757.76,84.948c0.336-0.099,0.671-0.19,1.007-0.284c0.232,0.164,0.461,0.329,0.69,0.496c-0.335,0.142-0.671,0.287-1.007,0.435	C758.221,85.379,757.992,85.162,757.76,84.948z M761.188,86.465c4.425,3.449,8.434,7.484,12.089,12.151	c19.626,25.064,22.048,62.576,24.39,98.853c2.728,42.266,5.549,85.971,34.835,112.686c3.932,3.587,7.849,6.372,11.782,8.369	c-2.673,3.118-5.332,5.802-7.983,7.996c-6.238-0.919-12.359-4.47-18.551-10.749c-26.159-26.53-27.168-70.343-28.144-112.714	c-0.862-37.415-1.753-76.104-19.691-103.663c-2.968-4.56-6.303-8.68-10.012-12.388C760.331,86.822,760.759,86.639,761.188,86.465z	 M833.85,308.677c-28.689-26.171-31.484-69.467-34.188-111.337c-2.361-36.581-4.803-74.406-24.811-99.958	c-3.498-4.467-7.303-8.378-11.472-11.757c0.311-0.113,0.622-0.226,0.934-0.334c5.078,3.038,9.706,6.842,14.008,11.451	c21.55,23.088,25.324,58.101,29.32,95.17c4.501,41.75,9.155,84.921,41.035,111.217c1.523,1.256,3.043,2.41,4.562,3.483	c-2.557,3.789-5.096,7.244-7.622,10.321C841.698,315.007,837.787,312.269,833.85,308.677z M855.966,306.053	c2.342-3.542,4.695-7.345,7.063-11.379c0.605,0.477,1.199,0.961,1.822,1.428c3.317,2.484,6.637,4.636,9.965,6.471	c-2.631,3.343-5.251,6.402-7.866,9.13C863.286,310.367,859.631,308.487,855.966,306.053z M877.817,301.923	c2.429-3.173,4.864-6.579,7.309-10.187c4.137,2.585,8.213,4.771,12.232,6.581c-2.734,2.959-5.467,5.675-8.202,8.114	C885.424,305.374,881.647,303.886,877.817,301.923z M900.717,297.562c2.557-2.866,5.112-5.927,7.667-9.161	c4.357,2.245,8.702,4.204,13.039,5.879c-2.857,2.615-5.719,5.016-8.591,7.183C908.787,300.519,904.75,299.218,900.717,297.562z	 M923.058,292.757c-4.464-1.68-8.935-3.662-13.42-5.957c2.432-3.13,4.865-6.412,7.301-9.818c4.851,2.673,9.669,5.128,14.453,7.35	C928.617,287.315,925.84,290.132,923.058,292.757z M907.847,285.865c-3.19-1.689-6.387-3.526-9.592-5.527	c-1.408-0.879-2.767-1.785-4.101-2.706c2.168-3.557,4.348-7.244,6.543-11.042c3.903,2.977,8.101,5.794,12.671,8.407	c0.608,0.348,1.212,0.67,1.82,1.011C912.736,279.433,910.29,282.727,907.847,285.865z M906.517,252.232	c-2.154,3.885-4.289,7.684-6.409,11.381c-5.193-4.141-9.795-8.608-13.922-13.33c2.029-4.187,4.075-8.456,6.142-12.79	C896.536,242.679,901.233,247.619,906.517,252.232z M803.572,87.266c30.888,14.224,41.948,45.624,53.658,78.867	c8.169,23.19,17.036,48.33,33.71,69.623c-2.077,4.36-4.134,8.654-6.171,12.867c-18.921-22.532-27.37-50.692-35.607-78.197	c-10.279-34.325-19.988-66.746-49.68-83.004c-3.705-2.029-7.38-3.582-11.038-4.703C793.39,83.417,798.426,84.896,803.572,87.266z	 M675.773,55.158c19.425,1.642,35.872,5.618,49.484,11.982c-12.59-3.73-27.288-5.553-44.36-5.553c-0.094,0-0.194,0-0.288,0	c-39.514,0.036-69.07,21.455-93.015,67.406c-10.839,20.717-19.036,43.505-26.267,63.611c-0.761,2.116-1.516,4.214-2.266,6.291	c0.145-0.577,0.289-1.151,0.434-1.73C576.097,130.92,596.747,48.475,675.773,55.158z M435.909,209.051	c36.751-10.928,67.618-4.087,97.468,2.528c3.451,0.765,6.88,1.523,10.294,2.248c-6.362-0.332-12.837-0.862-19.488-1.409	c-23.48-1.932-50.093-4.121-81.032,2.457c-1.684,0.358-3.376,0.795-5.071,1.266c-2.438-1.769-4.933-3.517-7.49-5.243	C432.344,210.206,434.115,209.584,435.909,209.051z M428.366,211.817c2.479,1.656,4.903,3.331,7.27,5.027	c-2.717,0.841-5.445,1.825-8.177,2.952c-2.46-1.255-4.957-2.483-7.499-3.679C422.717,214.503,425.516,213.056,428.366,211.817z	 M417.892,217.364c2.431,1.13,4.826,2.285,7.182,3.467c-2.634,1.165-5.271,2.459-7.906,3.883c-2.333-0.683-4.699-1.342-7.096-1.979	C412.64,220.802,415.247,219.008,417.892,217.364z M408.076,224.274c2.24,0.583,4.445,1.189,6.628,1.811	c-0.883,0.505-1.767,1.003-2.649,1.537c-1.569,0.948-3.129,1.949-4.683,2.984c-2.095-0.151-4.221-0.281-6.367-0.4	C403.333,228.127,405.689,226.147,408.076,224.274z M398.923,232.094c1.947,0.1,3.867,0.213,5.77,0.336	c-2.195,1.531-4.375,3.137-6.542,4.8c-1.811,0.279-3.63,0.568-5.461,0.867C394.748,236.034,396.824,234.028,398.923,232.094z	 M394.911,239.765c-1.835,1.462-3.66,2.959-5.476,4.484c-1.406,0.551-2.82,1.109-4.239,1.671c1.692-1.831,3.395-3.636,5.11-5.402	C391.848,240.262,393.383,240.011,394.911,239.765z M384.2,248.464c0.189-0.075,0.376-0.148,0.564-0.223	c-1.23,1.068-2.458,2.143-3.68,3.224c-0.705,0.452-1.413,0.907-2.121,1.362c1.049-1.188,2.102-2.369,3.159-3.54	C382.816,249.012,383.509,248.738,384.2,248.464z M520.506,275.109c-8.15,2.054-18.115-1.673-30.172-11.332	c11.442,5.224,21.22,6.044,29.855,2.486c11.68-4.815,20.236-17.354,27.878-34.024C541.124,255.108,533.126,271.926,520.506,275.109z	 M744.272,93.537c-18.73,12.684-36.98,33.255-54.629,53.149c-19.993,22.536-40.667,45.84-62.493,58.441	c-20.521,11.848-40.409,13.16-60.561,10.691c18.426-1.277,36.552-6.302,56.04-19.94c15.708-11.043,30.722-26.602,46.616-43.074	c13.016-13.489,26.475-27.437,40.514-38.889c15.013-12.257,28.981-21.897,42.551-27.11c0.367,0.408,0.723,0.824,1.081,1.24	C750.381,89.632,747.343,91.458,744.272,93.537z M822.812,333.207c-7.221,1.02-14.138-2.367-21.161-10.337	c-23.673-26.865-22.96-69.22-22.205-114.062c0.749-44.48,1.501-89.886-22.888-120.262c0.462-0.226,0.924-0.449,1.386-0.665	c3.838,3.749,7.263,7.945,10.296,12.604c17.628,27.082,18.512,65.482,19.367,102.618c0.984,42.76,2.003,86.977,28.72,114.072	c5.924,6.008,11.827,9.643,17.859,10.99C830.385,330.936,826.599,332.674,822.812,333.207z M842.872,326.529	c-1.29,0.185-2.572,0.249-3.848,0.217c2.357-2.109,4.715-4.574,7.078-7.36c2.85,1.269,5.712,2.124,8.597,2.573	C850.77,324.392,846.834,325.96,842.872,326.529z M863.718,320.042c-1.089,0.153-2.172,0.234-3.253,0.268	c2.33-1.835,4.656-3.948,6.981-6.307c2.814,0.939,5.637,1.574,8.477,1.902C871.869,318.05,867.803,319.47,863.718,320.042z	 M885.607,313.852c-0.986,0.127-1.969,0.204-2.95,0.257c2.351-1.627,4.696-3.47,7.036-5.513c2.897,0.753,5.803,1.276,8.721,1.546	C894.18,312.014,889.916,313.296,885.607,313.852z M906.205,308.358c2.348-1.398,4.684-2.982,7.013-4.703	c3.004,0.669,5.976,1.139,8.919,1.419C916.901,306.929,911.596,308.062,906.205,308.358z M931.283,303.295	c2.307-1.144,4.625-2.423,6.956-3.844c0.043-0.026,0.085-0.054,0.127-0.08c3.042,0.656,6.085,1.181,9.128,1.556	C942.053,302.333,936.654,303.117,931.283,303.295z M957.831,299.654c2.492-0.97,4.965-2.054,7.421-3.233	c3.246,0.801,6.482,1.502,9.706,2.085C969.233,299.387,963.527,299.766,957.831,299.654z M1005.091,298.793	c-6.176,0.193-12.379-0.031-18.618-0.67c2.227-0.587,4.458-1.226,6.693-1.959c0.463-0.152,0.924-0.314,1.385-0.471	C998.108,296.816,1001.618,297.843,1005.091,298.793z M991.335,294.642c-3.507,1.108-7.005,2.042-10.493,2.784	c-4.25-0.604-8.518-1.391-12.806-2.381c3.16-1.62,6.294-3.396,9.401-5.313C982.137,291.51,986.768,293.144,991.335,294.642z	 M975.093,288.843c-3.312,2.002-6.647,3.844-10.007,5.486c-4.566-1.146-9.157-2.515-13.774-4.097	c2.967-2.361,5.916-4.883,8.853-7.542C965.209,284.887,970.189,286.947,975.093,288.843z M958.162,281.813	c-3.015,2.71-6.039,5.266-9.075,7.649c-4.758-1.7-9.545-3.638-14.364-5.801c2.631-2.896,5.26-5.927,7.888-9.079	C947.868,277.15,953.048,279.553,958.162,281.813z M929.536,267.957c3.782,1.986,7.521,3.876,11.233,5.71	c-2.651,3.171-5.301,6.223-7.951,9.126c-4.872-2.245-9.778-4.719-14.721-7.438c2.275-3.217,4.553-6.54,6.836-9.951	C926.434,266.275,927.961,267.13,929.536,267.957z"/></svg>