<?xml version="1.0" encoding="utf-8"?><svg version="1.1" id="Layer_1" xmlns="http://www.w3.org/2000/svg" xmlns:xlink="http://www.w3.org/1999/xlink" x="0px" y="0px"	 viewBox="0 0 1190 842" style="enable-background:new 0 0 1190 842;" xml:space="preserve"><style type="text/css">	.st0{opacity:0.1;fill:#2b343d;enable-background:new    ;}</style><g>	<path class="st0" d="M659.624,13.81c6.893,0,12.665-5.772,12.665-12.665c-0.427,0-1.492-0.318-1.86-0.064		c-0.363,0.251-0.262,0.875-0.283,1.288c-0.083,1.588-0.678,3.107-1.533,4.443c-1.863,2.907-5.076,4.845-8.544,4.964		c-3.11,0.107-6.196-1.209-8.302-3.495c-1.229-1.334-2.115-2.986-2.529-4.754c-0.113-0.485-0.01-1.968-0.321-2.267		c-0.369-0.354-1.488-0.114-1.957-0.114C646.958,8.039,652.73,13.81,659.624,13.81z"/>	<path class="st0" d="M470.066,13.81c6.893,0,12.665-5.772,12.665-12.665c-0.427,0-1.492-0.318-1.86-0.064		c-0.363,0.251-0.262,0.875-0.283,1.288c-0.083,1.588-0.678,3.107-1.534,4.443c-1.863,2.907-5.077,4.845-8.545,4.964		c-3.111,0.107-6.196-1.209-8.302-3.495c-1.229-1.334-2.115-2.986-2.529-4.754c-0.113-0.485-0.01-1.968-0.321-2.267		c-0.369-0.354-1.488-0.114-1.957-0.114C457.401,8.039,463.173,13.81,470.066,13.81z"/>	<path class="st0" d="M280.509,13.81c6.893,0,12.665-5.772,12.665-12.665c-0.427,0-1.492-0.318-1.86-0.064		c-0.363,0.251-0.262,0.875-0.283,1.288c-0.083,1.588-0.678,3.107-1.534,4.443c-1.863,2.907-5.077,4.845-8.545,4.964		c-3.11,0.106-6.195-1.21-8.301-3.495c-1.229-1.334-2.115-2.986-2.529-4.754c-0.113-0.485-0.01-1.968-0.321-2.267		c-0.369-0.354-1.488-0.114-1.957-0.114C267.845,8.038,273.615,13.81,280.509,13.81z"/>	<path class="st0" d="M1.529,29.923C1.02,29.948,0.51,29.973,0,29.999c0.371,0.742,0.581,1.156,0.581,1.977		c0.579-0.181,1.445,3.162,1.556,3.45c0.381,0.993,0.747,2.01,1.197,2.974c0.287,0.617,0.956,1.419,0.963,2.112		c0.01,1.094-1.508,1.723-2.34,2.189c-1.297,0.727-0.47,1.241,0.052,2.34c1.152-0.546,2.221-1.265,3.159-2.129		c2.769,5.707,6.109,11.137,9.95,16.185c-2.917,2.102-6.164,3.688-9.619,4.682c-1.104,0.318-2.552,0.296-3.598,0.727		c-0.938,0.387-0.297,1.322-0.173,2.156c2.71-0.405,5.37-1.154,7.898-2.21c1.314-0.549,2.591-1.181,3.824-1.893		c0.801-0.463,1.783-1.458,2.659-1.7c0.082-0.056,0.164-0.113,0.247-0.169c0.152,0.191,0.304,0.382,0.458,0.572		c3.831,4.744,8.11,9.126,12.766,13.064c-4.736,3.803-10.127,6.795-15.886,8.732c-2.911,0.979-5.92,1.721-8.959,2.172		c-0.8,0.119-2.14-0.05-2.865,0.278c-0.806,0.364-0.267,1.339-0.201,2.1c8.959-0.778,17.733-3.83,25.214-8.826		c0.877-0.586,1.746-1.185,2.561-1.854c0.336-0.275,1.219-1.279,1.676-1.256c0.562,0.029,1.5,1.12,1.89,1.42		c0.834,0.641,1.678,1.269,2.533,1.882c3.812,2.739,7.826,5.195,11.997,7.347c-6.554,6.274-14.292,11.295-22.677,14.757		c-4.122,1.702-8.399,3.028-12.763,3.948c-2.437,0.514-4.901,0.899-7.378,1.159c-0.742,0.078-2.13-0.089-2.83,0.216		c-0.667,0.291-0.293,1.324-0.25,2.044c10.019-0.601,19.911-3.247,28.893-7.725c4.484-2.236,8.746-4.921,12.691-8.009		c1.783-1.396,3.607-2.842,5.178-4.479c0.433-0.451,0.709-0.962,1.357-0.886c0.708,0.083,1.796,0.933,2.446,1.225		c5.333,2.393,10.887,4.295,16.568,5.671c-13.843,16.308-33.223,27.583-54.251,31.525c-3.12,0.585-6.269,1.012-9.432,1.276		c-0.689,0.057-1.375,0.113-2.066,0.123c-0.334,0.005-0.958-0.123-1.263,0.043c-0.625,0.34-0.163,1.445-0.135,2.061		c14.758-0.666,29.32-4.822,42.22-12.018c6.036-3.367,11.708-7.386,16.886-11.964c2.62-2.316,5.113-4.775,7.464-7.364		c0.496-0.547,0.986-1.099,1.469-1.657c0.312-0.36,0.743-1.156,1.191-1.371c0.537-0.258,1.157,0.017,1.718,0.13		c1.103,0.222,2.211,0.424,3.321,0.607c7.819,1.289,15.795,1.608,23.692,0.951c3.93-0.327,7.993-0.76,11.823-1.728		c0.363-0.092,0.954-0.427,1.309-0.338c0.472,0.119,0.87,0.828,1.19,1.203c1.338,1.569,2.726,3.095,4.162,4.575		c10.277,10.598,22.965,18.769,36.899,23.658c27.937,9.803,59.674,6.022,84.417-10.286c6.105-4.024,11.745-8.743,16.785-14.04		c1.205-1.266,2.47-2.55,3.541-3.934c0.315-0.408,0.515-0.924,1.056-1.017c0.439-0.076,1.488,0.373,1.929,0.459		c3.833,0.748,7.711,1.26,11.606,1.536c7.827,0.555,15.719,0.154,23.448-1.199c0.968-0.169,1.948-0.325,2.901-0.566		c0.502-0.127,1.162-0.463,1.686-0.322c1.084,0.292,2.157,2.332,2.894,3.15c2.354,2.61,4.851,5.091,7.476,7.428		c21.684,19.304,51.618,27.793,80.222,22.778c14.141-2.479,27.669-8.157,39.317-16.551c5.829-4.2,11.752-9.114,16.195-14.799		c0.66-0.844,1.174-1.947,2.321-1.767c1.704,0.267,3.391,0.68,5.099,0.946c3.875,0.603,7.786,0.968,11.705,1.095		c7.749,0.251,15.768-0.286,23.328-2.089c0.439-0.105,0.86-0.35,1.292-0.144c0.397,0.189,0.735,0.885,0.987,1.215		c1.1,1.443,2.392,2.765,3.647,4.074c2.478,2.583,5.099,5.029,7.85,7.32c10.698,8.913,23.346,15.456,36.817,18.991		c28.509,7.482,59.607,1.246,82.931-16.795c2.878-2.227,5.63-4.616,8.239-7.153c1.335-1.298,2.631-2.635,3.888-4.008		c0.544-0.594,1.08-1.195,1.609-1.803c0.349-0.401,0.98-1.481,1.499-1.693c0.863-0.352,2.713,0.468,3.615,0.63		c2.088,0.374,4.188,0.68,6.296,0.915c3.835,0.428,7.695,0.629,11.554,0.596c14.734-0.128,29.411-3.7,42.538-10.398		c24.675-12.59,43.165-35.854,49.694-62.794c1.79-7.386,2.694-14.984,2.694-22.583c-0.372,0-1.775-0.242-2,0.059		c-0.252,0.336-0.019,1.367-0.019,1.801c0.002,2.384-0.188,4.787-0.419,7.159c-0.473,4.861-1.327,9.684-2.548,14.413		c-2.255,8.727-5.766,17.128-10.42,24.848c-8.558,14.197-20.925,26.074-35.466,34.035c-15.723,8.608-33.939,12.532-51.813,11.219		c-17.454-1.282-34.513-7.531-48.624-17.891c-13.35-9.801-24.019-23.2-30.579-38.407c-0.926-2.146-1.771-4.326-2.535-6.535		c3.79-0.241,7.565-0.706,11.3-1.393c1.756-0.323,3.503-0.695,5.239-1.116c0.506-0.123,1.345-0.546,1.863-0.492		c0.496,0.051,0.37-0.013,0.605,0.547c10.444,24.921,33.782,43.056,60.755,46.262c27.031,3.213,54.336-9.136,70-31.333		c8.869-12.568,13.723-27.791,13.723-43.175c-0.828,0-1.82-0.467-2.094,0.456c-0.128,0.431,0.038,1.033,0.05,1.478		c0.022,0.823-0.041,1.65-0.091,2.472c-0.239,3.894-0.793,7.768-1.652,11.573c-1.549,6.868-4.088,13.515-7.53,19.657		c-6.289,11.221-15.601,20.722-26.68,27.257c-11.806,6.964-25.568,10.528-39.273,10.072c-13.672-0.454-27.17-4.921-38.53-12.522		c-12.079-8.082-21.593-19.875-26.99-33.363c5.967-1.738,11.763-4.064,17.278-6.93c6.874,17.147,22.772,29.923,40.915,33.226		c19.22,3.499,39.445-4.291,51.685-19.449c7.698-9.533,11.972-21.677,11.972-33.928c-1.038,0-1.97-0.432-2.017,0.863		c-0.051,1.406-0.094,2.804-0.232,4.206c-0.304,3.08-0.883,6.132-1.726,9.11c-1.52,5.369-3.896,10.493-7.032,15.109		c-5.787,8.518-14.135,15.279-23.682,19.143c-20.443,8.274-44.479,2.368-58.94-14.221c-2.054-2.356-3.9-4.894-5.504-7.578		c-0.781-1.307-1.503-2.65-2.164-4.022c-0.347-0.721-1.605-2.646-1.367-3.392c0.142-0.445,1.108-0.719,1.474-0.912		c0.752-0.397,1.481-0.86,2.207-1.302c1.356-0.825,2.692-1.683,4.005-2.574c2.832-1.921,5.561-3.993,8.172-6.205		c2.899,11.47,12.135,20.766,23.488,23.98c12.427,3.518,26.149-0.917,34.489-10.707c5.069-5.951,7.889-13.684,7.889-21.498		c-0.439,0-1.692-0.232-1.986,0.141c-0.333,0.422-0.171,2.023-0.205,2.571c-0.127,2.049-0.495,4.038-1.077,6.008		c-1.028,3.483-2.659,6.776-4.794,9.713c-3.92,5.393-9.502,9.525-15.876,11.522c-11.97,3.751-25.581-0.196-33.637-9.819		c-2.697-3.221-4.741-6.982-5.958-11.003c-0.16-0.529-0.708-1.618-0.633-2.157c0.092-0.659,0.779-0.96,1.259-1.366		c1.769-1.497,3.388-3.239,4.973-4.926c-0.473-0.444-1.106-1.419-1.712-1.228c-0.481,0.152-0.983,1.125-1.327,1.502		c-1.875,2.053-4.033,3.915-6.151,5.711c-4.185,3.547-8.679,6.73-13.418,9.495c-9.289,5.42-19.518,9.22-30.094,11.17		c-20.605,3.799-42.399,0.518-60.926-9.286c-5.365-2.839-10.449-6.208-15.165-10.029c-2.38-1.929-4.667-3.974-6.846-6.127		c-0.488-0.482-0.991-0.96-1.454-1.467c-0.225-0.247-0.538-0.802-0.859-0.92c-0.704-0.258-1.182,0.731-1.658,1.179		c1.302,1.386,2.644,2.735,4.025,4.043c0.411,0.389,1.192,0.853,1.308,1.43c0.146,0.723-0.333,1.749-0.535,2.417		c-1.04,3.432-2.509,6.676-4.587,9.61c-3.857,5.45-9.475,9.609-15.822,11.686c-11.855,3.879-25.438,0.113-33.614-9.304		c-2.587-2.98-4.58-6.439-5.903-10.154c-0.342-0.96-0.84-2.016-0.918-3.04c-0.07-0.928,0.518-1.199,1.175-1.805		c1.7-1.568,3.342-3.197,4.925-4.882c-0.165-0.155-1.249-1.422-1.422-1.335c-0.771,0.388-1.316,1.257-1.89,1.874		c-0.992,1.067-2.084,2.06-3.157,3.045c-1.968,1.806-4.014,3.526-6.13,5.156c-4.153,3.201-8.572,6.057-13.201,8.519		c-9.192,4.888-19.207,8.222-29.494,9.826c-20.039,3.124-41.024-0.404-58.89-10.018c-5.16-2.777-10.056-6.043-14.609-9.732		c-2.32-1.88-4.55-3.869-6.68-5.962c-0.491-0.482-0.987-0.963-1.458-1.465c-0.263-0.28-0.58-0.851-0.922-1.012		c-0.805-0.38-1.195,0.574-1.759,1.104c1.26,1.341,2.558,2.648,3.891,3.916c0.437,0.416,1.276,0.922,1.434,1.523		c0.177,0.673-0.344,1.837-0.529,2.455c-1.08,3.598-2.661,6.983-4.883,10.023c-3.9,5.334-9.524,9.366-15.818,11.371		c-11.918,3.797-25.5-0.184-33.577-9.71c-2.636-3.108-4.519-6.656-5.861-10.489c-0.276-0.79-0.81-1.774-0.735-2.636		c0.066-0.747,0.616-1.026,1.205-1.569c1.7-1.568,3.342-3.198,4.926-4.883c-0.693-0.651-1.112-1.616-2.005-0.887		c-0.851,0.695-1.515,1.656-2.303,2.426c-1.951,1.907-3.986,3.729-6.096,5.458c-4.135,3.389-8.561,6.426-13.212,9.063		c-9.317,5.283-19.551,8.934-30.103,10.767c-20.342,3.533-41.78,0.164-60.021-9.523c-5.248-2.787-10.228-6.079-14.854-9.808		c-2.39-1.927-4.686-3.969-6.876-6.121c-0.735-0.723-1.444-1.775-2.283-2.362c-0.865-0.606-1.224,0.39-1.858,0.987		c1.385,1.473,2.795,2.955,4.302,4.304c0.404,0.362,0.907,0.612,1.041,1.174c0.188,0.783-0.499,2.265-0.727,3.016		c-1.086,3.58-2.821,6.962-5.089,9.937c-4.128,5.418-10.067,9.428-16.643,11.21c-12.212,3.31-25.717-1.326-33.393-11.367		c-2.453-3.208-4.297-6.918-5.321-10.828c-0.204-0.781-0.304-1.06,0.22-1.678c0.73-0.863,1.737-1.583,2.552-2.373		c1.698-1.645,3.328-3.359,4.948-5.081c-0.764,0-2.285-0.327-2.982,0c-0.64,0.3-1.243,1.295-1.733,1.794		c-1.748,1.782-3.565,3.497-5.449,5.135c-3.795,3.298-7.856,6.292-12.129,8.941c-8.305,5.148-17.423,8.975-26.911,11.31		C13.448,28.755,7.503,29.627,1.529,29.923z M206.013,125.402c-6.315,1.315-12.767,1.973-19.217,1.973		c-21.349,0-42.371-7.392-58.961-20.838c-4.637-3.758-8.914-7.96-12.761-12.524c5.116-1.291,10.127-2.996,14.954-5.131		c1.054-0.466,2.095-0.959,3.14-1.447c1.063-0.497,1.42,0.041,2.214,0.839c1.846,1.855,3.896,3.501,5.967,5.097		c7.838,6.038,16.903,10.497,26.517,12.871c20.408,5.039,42.27,1.645,59.87-9.911c2.452-1.61,4.814-3.347,7.047-5.249		c1.127-0.96,2.232-1.942,3.314-2.952c0.447-0.417,0.641-0.762,1.24-0.674c0.596,0.087,1.256,0.582,1.807,0.834		c5.522,2.526,11.286,4.522,17.187,5.951C244.903,110.069,226.343,121.169,206.013,125.402z M168.685,61.996		c8.391,5.24,18.992,6.457,28.353,3.266c2.332-0.795,4.59-1.831,6.686-3.128c0.453-0.28,1.7-1.46,2.198-1.332		c0.754,0.195,1.537,1.779,2.014,2.35c3.379,4.042,7.176,7.771,11.197,11.171c-14.035,11.266-33.751,14.546-50.642,8.279		c-5.38-1.996-10.44-4.857-14.896-8.474c3.176-2.702,6.173-5.61,8.973-8.7c1.119-1.235,2.239-2.476,3.214-3.828		c0.205-0.285,0.556-0.967,0.953-0.934C167.237,60.708,168.299,61.754,168.685,61.996z M168.008,58.972		c-0.095-0.69,1.393-2.026,1.777-2.541c3.133-4.212,5.358-8.873,7.969-13.392c0.357,0.318,0.732,0.605,1.122,0.88		c4.801,3.397,11.517,2.977,15.848-1.008c2.769,5.704,6.107,11.133,9.945,16.179c-7.889,5.693-18.35,7.414-27.648,4.539		c-2.342-0.724-4.591-1.73-6.697-2.985C169.803,60.334,168.093,59.59,168.008,58.972z M172.63,85.992		c14.241,3.843,29.763,1.409,42.317-6.278c1.785-1.093,3.372-2.514,5.145-3.596c0.995-0.608,1.407,0.151,2.293,0.836		c0.837,0.647,1.684,1.28,2.542,1.899c3.863,2.786,7.933,5.285,12.166,7.468c-0.273,0.261-0.546,0.523-0.823,0.78		c-21.264,19.757-53.54,25.184-79.966,12.931c-7.506-3.48-14.441-8.217-20.387-13.972c3.647-1.91,7.167-4.06,10.54-6.421		c1.363-0.954,2.758-1.911,4.011-3.009c1.165-1.022,1.445-1.49,2.697-0.368C158.479,81.02,165.81,84.152,172.63,85.992z		 M395.57,125.402c-6.315,1.315-12.766,1.973-19.217,1.973c-21.349,0-42.371-7.393-58.961-20.838		c-4.637-3.758-8.914-7.96-12.761-12.524c5.366-1.353,10.599-3.175,15.648-5.441c0.862-0.387,2.178-1.395,3.103-1.45		c0.85-0.051,1.816,1.458,2.393,1.98c1.97,1.781,4.035,3.464,6.163,5.053c8.218,6.14,17.803,10.503,27.841,12.624		c19.579,4.136,40.478,0.663,57.297-10.307c2.523-1.645,4.955-3.425,7.248-5.379c1.057-0.9,2.091-1.825,3.112-2.766		c0.362-0.334,0.767-0.923,1.28-0.942c0.452-0.017,1.174,0.53,1.571,0.714c5.648,2.614,11.551,4.676,17.599,6.14		C434.46,110.068,415.9,121.169,395.57,125.402z M358.239,61.993c8.373,5.23,18.943,6.447,28.296,3.306		c2.362-0.793,4.618-1.862,6.741-3.165c0.456-0.28,1.705-1.461,2.203-1.333c0.754,0.195,1.538,1.78,2.015,2.35		c3.379,4.041,7.175,7.771,11.196,11.17c-14.034,11.265-33.747,14.547-50.637,8.281c-5.381-1.996-10.444-4.857-14.901-8.476		c3.138-2.669,6.101-5.541,8.872-8.589c1.191-1.31,2.351-2.637,3.401-4.061c0.21-0.284,0.485-0.845,0.867-0.811		C356.796,60.709,357.851,61.751,358.239,61.993z M357.566,58.969c-0.086-0.64,1.318-1.932,1.649-2.368		c3.219-4.232,5.451-8.989,8.095-13.563c0.357,0.318,0.732,0.605,1.122,0.88c4.801,3.397,11.518,2.977,15.849-1.008		c2.769,5.704,6.106,11.132,9.945,16.179c-7.938,5.729-18.131,7.357-27.488,4.565c-2.326-0.694-4.56-1.663-6.654-2.89		C359.53,60.441,357.653,59.62,357.566,58.969z M362.653,86.117c14.132,3.673,29.563,1.221,41.96-6.464		c0.809-0.502,1.604-1.026,2.387-1.569c0.888-0.616,1.793-1.58,2.755-2.049c0.965-0.471,1.474,0.369,2.295,1.001		c0.814,0.627,1.638,1.241,2.471,1.842c3.852,2.775,7.91,5.265,12.129,7.442c-0.273,0.261-0.546,0.523-0.823,0.78		c-21.437,19.918-53.698,25.081-80.277,12.77c-7.407-3.431-14.212-8.135-20.076-13.811c3.778-1.975,7.417-4.213,10.898-6.673		c1.364-0.964,2.749-1.926,3.987-3.049c1.202-1.09,1.435-0.895,2.616,0.143C348.371,81.223,355.769,84.327,362.653,86.117z		 M620.176,88.239c5.375,2.742,11.422,4.586,17.268,6.001c-13.427,15.829-31.987,26.929-52.317,31.163		c-6.315,1.315-12.767,1.973-19.217,1.973c-21.349,0-42.371-7.392-58.961-20.838c-4.637-3.758-8.914-7.96-12.761-12.524		c5.202-1.312,10.291-3.056,15.193-5.238c1.01-0.45,1.996-0.942,2.987-1.427c0.887-0.434,1.019-0.195,1.694,0.51		c1.698,1.773,3.638,3.33,5.561,4.853c7.862,6.222,16.961,10.851,26.68,13.36c20.909,5.397,43.417,1.79,61.357-10.258		c2.428-1.631,4.734-3.423,6.943-5.339c0.971-0.842,1.959-2.102,3.057-2.758C618.577,87.168,619.251,87.767,620.176,88.239z		 M601.678,77.091c0.823,0.647,1.672,1.264,2.522,1.875c3.815,2.74,7.832,5.2,12.007,7.353c-0.278,0.266-0.556,0.532-0.838,0.793		c-21.474,19.939-53.857,25.075-80.441,12.674c-7.339-3.423-14.081-8.098-19.899-13.728c3.713-1.942,7.293-4.137,10.72-6.547		c1.402-0.986,2.822-1.981,4.116-3.107c0.278-0.242,0.848-1.004,1.27-0.964c0.43,0.041,1.144,0.906,1.473,1.16		c6.119,4.704,13.292,8.116,20.824,9.813c14.493,3.264,30.139,0.469,42.466-7.874c0.725-0.491,1.454-0.986,2.138-1.534		c0.441-0.353,1.136-1.244,1.749-1.261C600.44,75.725,601.194,76.711,601.678,77.091z M586.883,62.954		c3.359,4.146,7.296,7.928,11.364,11.368c-14.155,11.357-33.991,14.534-50.982,8.15c-5.258-1.976-10.196-4.805-14.556-8.345		c3.307-2.813,6.42-5.848,9.319-9.08c1.016-1.132,1.954-2.288,2.868-3.499c0.155-0.205,0.557-0.896,0.871-0.916		c0.431-0.029,1.73,1.175,2.031,1.362c8.313,5.198,18.818,6.443,28.118,3.349c2.341-0.779,4.612-1.802,6.721-3.084		c0.478-0.291,1.883-1.591,2.401-1.457C585.732,60.981,586.477,62.453,586.883,62.954z M583.782,59.09		c-8.008,5.778-18.55,7.439-27.952,4.429c-2.508-0.803-4.922-1.917-7.142-3.336c-0.346-0.221-1.502-0.726-1.592-1.194		c-0.103-0.535,1.406-1.995,1.707-2.416c3.067-4.3,5.469-8.951,8.065-13.536c0.357,0.318,0.732,0.605,1.122,0.88		c4.801,3.397,11.517,2.977,15.848-1.008C576.606,48.615,579.944,54.043,583.782,59.09z M561.021,33.079		c0.367-1.03,0.347-1.124,1.457-1.096c2.292,0.056,4.58,0.074,6.872-0.014c0.714,2.101,1.483,4.191,2.359,6.231		c0.546,1.271,1.753,2.474,0.465,3.601c-2.612,2.287-6.643,2.975-9.907,2.001c-0.956-0.285-1.858-0.702-2.704-1.232		c-0.454-0.284-1.425-0.726-1.619-1.269c-0.25-0.701,0.574-1.865,0.843-2.495c0.42-0.981,0.824-1.968,1.211-2.963		C560.355,34.927,560.692,34.005,561.021,33.079z M422.706,19.732c5.403-2.865,10.427-6.406,15.097-10.361		c2.734,10.817,11.113,19.816,21.656,23.424c11.174,3.825,24.033,1.251,32.895-6.55c5.203-4.58,8.905-10.809,10.454-17.564		c4.469,3.871,9.294,7.332,14.397,10.317c0.393,0.23,1.195,0.476,1.504,0.823c0.353,0.396,0.318,0.099,0.221,0.668		c-0.202,1.179-1.115,2.548-1.644,3.626c-1.257,2.562-2.73,5.016-4.391,7.336c-5.971,8.344-14.45,14.893-24.051,18.518		c-21.065,7.955-45.42,1.153-59.399-16.454c-2.064-2.599-3.883-5.391-5.416-8.335c-0.6-1.153-1.122-2.343-1.7-3.506		C421.794,20.601,421.611,20.313,422.706,19.732z M420.038,21.297c5.937,14.812,18.618,26.439,33.738,31.423		c16.594,5.47,35.285,2.111,49.23-8.323c7.949-5.948,14.2-14.137,17.84-23.374c5.583,2.945,11.46,5.335,17.515,7.119		c-0.279,0.699-0.564,1.396-0.865,2.086c-8.513,19.543-25.802,34.578-46.129,40.814c-22.128,6.788-46.814,1.987-65.161-12.017		c-10.384-7.926-18.593-18.667-23.447-30.799C408.726,26.489,414.523,24.162,420.038,21.297z M400.81,28.772		c9.232,23.28,30.577,41.214,55.216,45.94c13.589,2.606,27.874,1.557,40.817-3.394c11.505-4.401,21.881-11.596,30.071-20.795		c5.001-5.617,9.125-12.076,12.177-18.949c0.317-0.714,0.527-1.853,1.032-2.434c0.488-0.561,0.663-0.318,1.436-0.115		c1.872,0.492,3.768,0.906,5.668,1.273c3.928,0.758,7.904,1.268,11.896,1.53c-9.695,27.994-32.712,50.241-61.024,58.967		c-30.302,9.34-64.146,2.296-88.262-18.246c-12.669-10.791-22.336-24.977-27.776-40.703		C388.392,31.445,394.683,30.416,400.81,28.772z M371.47,33.062c0.355-0.995,0.355-1.107,1.452-1.08		c2.292,0.057,4.58,0.074,6.872-0.015c0.714,2.103,1.5,4.182,2.358,6.231c0.305,0.729,0.878,1.574,1.082,2.332		c0.182,0.674-0.145,0.845-0.675,1.254c-3.174,2.454-7.334,3.211-11.062,1.576c-0.959-0.421-3.371-1.442-3.215-2.663		c0.066-0.519,0.57-1.08,0.797-1.542c0.522-1.062,0.933-2.206,1.36-3.309C370.798,34.925,371.138,33.995,371.47,33.062z		 M232.265,20.423c0.133-0.543,1.233-0.851,1.687-1.074c5.137-2.529,9.942-6.292,14.294-9.978		c2.721,10.765,11.031,19.719,21.499,23.37c11.146,3.888,23.963,1.361,32.879-6.351c5.302-4.586,9.06-10.878,10.627-17.708		c4.826,4.181,10.068,7.885,15.627,11.026c0.687,0.388,0.644,0.372,0.331,1.122c-0.496,1.186-1.02,2.359-1.592,3.511		c-1.14,2.296-2.457,4.501-3.921,6.605c-2.633,3.786-5.781,7.207-9.318,10.166c-7.372,6.165-16.389,10.268-25.902,11.671		c-19.685,2.903-39.743-5.977-50.914-22.424c-1.686-2.482-3.113-5.104-4.376-7.822C232.964,22.055,232.138,20.938,232.265,20.423z		 M230.48,21.297c5.917,14.761,18.577,26.525,33.696,31.426c16.613,5.386,35.314,2.126,49.267-8.322		c7.948-5.952,14.202-14.139,17.844-23.377c5.583,2.946,11.46,5.335,17.515,7.119c-0.275,0.689-0.555,1.376-0.851,2.056		c-8.503,19.551-25.832,34.741-46.218,40.883c-22.019,6.634-46.727,2.033-64.965-11.953c-10.4-7.975-18.693-18.723-23.567-30.901		C219.169,26.489,224.965,24.162,230.48,21.297z M211.253,28.772c9.277,23.391,30.745,41.342,55.524,45.998		c26.204,4.924,53.204-4.546,70.802-24.5c4.985-5.652,9.076-12.14,12.1-19.04c0.272-0.62,0.457-1.574,0.886-2.092		c0.491-0.592,0.866-0.259,1.658-0.057c1.803,0.459,3.62,0.864,5.447,1.216c3.928,0.758,7.904,1.268,11.895,1.53		c-8.023,23.174-25.22,42.632-47.21,53.48c-6.796,3.352-14.017,5.952-21.453,7.446c0.019,0.021,0.038,0.042,0.057,0.064		c-18.085,3.895-37.3,2.323-54.499-4.497c-15.502-6.147-29.289-16.527-39.497-29.713c-6.234-8.053-11.129-17.137-14.458-26.76		C198.835,31.445,205.127,30.416,211.253,28.772z M181.907,33.079c0.367-1.03,0.347-1.124,1.457-1.096		c2.292,0.056,4.58,0.074,6.872-0.014c0.714,2.101,1.483,4.191,2.359,6.231c0.546,1.271,1.753,2.474,0.465,3.601		c-2.612,2.287-6.643,2.975-9.907,2.001c-0.956-0.285-1.858-0.702-2.704-1.232c-0.454-0.284-1.425-0.726-1.619-1.269		c-0.25-0.701,0.574-1.865,0.843-2.495c0.42-0.981,0.824-1.968,1.211-2.963C181.241,34.927,181.578,34.005,181.907,33.079z		 M43.034,20.265c0.313-0.415,1.404-0.76,1.831-1.006c0.68-0.391,1.355-0.79,2.025-1.198c1.414-0.861,2.805-1.759,4.172-2.695		c2.648-1.813,5.018-4.042,7.678-5.812c0.466,1.798,1.088,3.566,1.849,5.26c4.241,9.419,12.972,16.598,23.039,18.922		c10.727,2.477,22.393-0.697,30.415-8.227c4.789-4.495,8.184-10.428,9.652-16.828c4.372,3.788,9.085,7.182,14.066,10.123		c0.648,0.383,1.969,0.766,2.086,1.523c0.056,0.364-0.426,1.062-0.567,1.381c-0.351,0.796-0.706,1.588-1.089,2.37		c-1.29,2.635-2.81,5.154-4.523,7.535c-5.848,8.129-14.095,14.473-23.403,18.145c-20.422,8.057-44.15,1.939-58.51-14.537		c-2.018-2.315-3.827-4.812-5.396-7.452c-0.802-1.349-1.546-2.735-2.223-4.152C43.776,22.866,42.498,20.978,43.034,20.265z		 M38.865,22.444c0.467-0.233,1.48-1.091,2.007-0.965c0.494,0.118,0.828,1.591,1.028,2.061c0.994,2.341,2.286,4.593,3.656,6.731		c5.051,7.879,12.181,14.383,20.437,18.781c16.784,8.94,37.812,8.134,53.928-1.925c8.776-5.477,15.953-13.475,20.382-22.829		c0.509-1.076,0.992-2.169,1.428-3.276c5.583,2.945,11.46,5.335,17.515,7.119c-7.996,20.06-25.195,35.913-45.72,42.531		C91.36,77.819,66.292,73.46,47.695,59.486C37.073,51.505,28.62,40.628,23.67,28.288C28.875,26.785,34.015,24.866,38.865,22.444z		 M21.785,28.993c0.409,0.277,0.599,1.427,0.797,1.894c2.833,6.693,6.794,12.983,11.512,18.503		C42.803,59.583,54.15,67.549,66.84,71.942c14.055,4.865,29.488,5.595,43.852,1.635c13.008-3.586,25.083-10.525,34.486-20.231		c5.584-5.763,10.327-12.419,13.816-19.651c0.492-1.02,0.96-2.052,1.402-3.094c0.226-0.532,0.432-1.627,0.959-1.849		c0.481-0.202,1.889,0.474,2.386,0.597c1.041,0.258,2.09,0.487,3.141,0.704c4.328,0.894,8.718,1.486,13.127,1.776		c-9.714,28.079-32.859,50.377-61.277,59.046c-30.246,9.226-63.95,2.153-88.004-18.322C18.057,61.765,8.392,47.577,2.95,31.855		c3.978-0.241,7.945-0.73,11.862-1.467c1.902-0.358,3.747-0.858,5.624-1.303C20.84,28.989,21.446,28.763,21.785,28.993z"/>	<path class="st0" d="M90.952,13.81c6.893,0,12.665-5.772,12.665-12.665c-0.427,0-1.492-0.318-1.86-0.064		c-0.363,0.251-0.262,0.875-0.283,1.288c-0.083,1.588-0.678,3.107-1.534,4.443c-1.863,2.907-5.077,4.845-8.545,4.964		c-3.111,0.107-6.196-1.209-8.302-3.495c-1.229-1.334-2.115-2.986-2.529-4.754c-0.113-0.485-0.01-1.968-0.321-2.267		c-0.369-0.354-1.488-0.114-1.957-0.114C78.287,8.039,84.059,13.81,90.952,13.81z"/>	<path class="st0" d="M585.476,8.575c5.625-1.541,11.071-3.744,16.182-6.554c-0.416-0.756-0.488-1.697-1.414-1.517		c-1.102,0.214-2.458,1.287-3.484,1.771c-2.455,1.157-4.975,2.174-7.544,3.046c-5.084,1.727-10.359,2.89-15.697,3.471		c-10.771,1.172-21.782-0.046-32.016-3.612c-2.729-0.951-5.402-2.065-7.998-3.335c-0.687-0.336-1.979-1.401-2.748-1.477		c-0.787-0.078-0.915,1.044-1.25,1.654C546.407,11.312,566.886,13.667,585.476,8.575z"/>	<path class="st0" d="M395.92,8.575c5.625-1.541,11.07-3.744,16.181-6.554c-0.416-0.756-0.487-1.697-1.414-1.517		c-1.102,0.214-2.458,1.287-3.484,1.771c-2.455,1.157-4.975,2.174-7.544,3.046c-5.084,1.727-10.36,2.89-15.697,3.471		c-10.771,1.172-21.782-0.046-32.016-3.612c-2.729-0.951-5.402-2.065-7.998-3.335c-0.687-0.336-1.979-1.401-2.747-1.477		c-0.787-0.078-0.915,1.044-1.25,1.654C356.85,11.312,377.329,13.667,395.92,8.575z"/>	<path class="st0" d="M206.362,8.575c5.625-1.541,11.071-3.744,16.182-6.554c-0.416-0.756-0.487-1.697-1.414-1.517		c-1.102,0.214-2.458,1.287-3.484,1.771c-2.455,1.157-4.975,2.174-7.544,3.046c-5.084,1.727-10.36,2.89-15.697,3.471		c-10.771,1.172-21.782-0.046-32.016-3.612c-2.729-0.951-5.402-2.065-7.998-3.335c-0.687-0.336-1.979-1.401-2.748-1.477		c-0.787-0.078-0.915,1.044-1.25,1.654C167.293,11.312,187.772,13.667,206.362,8.575z"/>	<path class="st0" d="M32.986,2.021C32.56,1.246,32.521,0.1,31.519,0.484c-1.3,0.498-2.555,1.39-3.829,1.984		c-3.415,1.593-6.955,2.918-10.577,3.958C13.357,7.504,9.511,8.271,5.63,8.73C4.524,8.86,3.209,8.72,2.128,8.958		c-1.123,0.248-0.545,1.197-0.486,2.138C12.613,10.413,23.352,7.317,32.986,2.021z"/></g></svg>