<?xml version="1.0" encoding="utf-8"?><svg version="1.1" id="Layer_1" xmlns="http://www.w3.org/2000/svg" xmlns:xlink="http://www.w3.org/1999/xlink" x="0px" y="0px"	 viewBox="0 0 1190 842" style="enable-background:new 0 0 1190 842;" xml:space="preserve"><style type="text/css">	.st0{opacity:0.35;fill:#2b343d;enable-background:new    ;}</style><g>	<path class="st0" d="M212.8,138.1c85.4-0.6,171.8-0.5,255.8-2.3c83.3-1.7,164.9-5.3,243.3-11.5c78.4-6.1,154.1-14.7,227-26.2		c73.7-11.7,145.3-26.6,215.1-47.1c12-3.5,24.1-7.3,36.1-11.2v-0.1c-12.1,3.9-24.2,7.7-36.3,11.2c-69.8,20.4-141.5,35.3-215.1,47		C865.8,109.5,790,118,711.6,124.1c-78.3,6.1-160,9.7-243.3,11.4c-84,1.8-170.5,1.7-255.9,2.2c-71.9,0.5-143.7,1.6-212.3,5.9v0.6		C68.7,139.8,140.7,138.7,212.8,138.1z"/>	<path class="st0" d="M180.1,103.5c88.7,2.8,177.8,6,263.9,6.9c85.4,0.9,168.5-0.4,247.9-4.5c79.5-4.1,155.8-10.8,229.3-20.4		c74.3-9.8,146.4-22.7,217.3-41.1c17.2-4.5,34.4-9.3,51.5-14.6v-0.1c-17.2,5.3-34.4,10.1-51.7,14.6c-70.9,18.4-143.1,31.2-217.3,41		c-73.5,9.7-149.9,16.3-229.4,20.4c-79.4,4.1-162.5,5.4-247.9,4.4c-86.1-0.9-175.2-4.2-264-7C119.5,101.3,59.1,99.7,0,99.9v0.5		C59.2,100.1,119.8,101.7,180.1,103.5z"/>	<path class="st0" d="M151.5,66.7c91.9,6.5,183.5,13.2,271.4,16.9c87.2,3.8,171.5,4.8,251.6,2.8c80.2-2,156.9-6.8,230.7-14.6		c74.5-7.9,146.9-18.7,218.5-34.9c22.1-5,44.2-10.6,66.3-16.9l0,0c-22.2,6.3-44.3,11.9-66.4,16.9c-71.6,16.2-144,27-218.5,34.8		c-73.8,7.7-150.5,12.5-230.7,14.5c-80.1,2-164.5,0.9-251.7-2.9c-87.9-3.7-179.5-10.4-271.4-17c-50.3-3.5-101-7-151.2-9.4v0.4		C50.3,59.7,101.1,63.2,151.5,66.7z"/></g></svg>