<?xml version="1.0" encoding="utf-8"?><svg version="1.1" id="Layer_1" xmlns="http://www.w3.org/2000/svg" xmlns:xlink="http://www.w3.org/1999/xlink" x="0px" y="0px"	 viewBox="0 0 1190 842" style="enable-background:new 0 0 1190 842;" xml:space="preserve"><style type="text/css">	.st0{opacity:0.08;fill:#2b343d;}</style><g>	<path class="st0" d="M1151,218.1v-4c0-10.2-8.3-18.5-18.5-18.5h-4c-10.2,0-18.5,8.3-18.5,18.5v4c0,10.2,8.3,18.5,18.5,18.5h4		C1142.7,236.6,1151,228.3,1151,218.1z M1149,216.1L1149,216.1c0,10.2-8.3,18.5-18.5,18.5l0,0c-10.2,0-18.5-8.3-18.5-18.5l0,0		c0-10.2,8.3-18.5,18.5-18.5l0,0C1140.7,197.6,1149,205.9,1149,216.1z"/>	<path class="st0" d="M759,58.1v4c0,10.2,8.3,18.5,18.5,18.5h4c10.2,0,18.5-8.3,18.5-18.5v-4c0-10.2-8.3-18.5-18.5-18.5h-4		C767.3,39.6,759,47.9,759,58.1z M761,60.1L761,60.1c0-10.2,8.3-18.5,18.5-18.5l0,0c10.2,0,18.5,8.3,18.5,18.5l0,0		c0,10.2-8.3,18.5-18.5,18.5l0,0C769.3,78.6,761,70.3,761,60.1z"/>	<path class="st0" d="M1112,140.1v-41c0-10.2,8.3-18.5,18.5-18.5h2c10.2,0,18.5-8.3,18.5-18.5v-4c0-10.2-8.3-18.5-18.5-18.5h-2		c-10.2,0-18.5-8.3-18.5-18.5v-2c0-10.2-8.3-18.5-18.5-18.5h-4c-10.2,0-18.5,8.3-18.5,18.5v4c0,10.2,8.3,18.5,18.5,18.5h2		c10.2,0,18.5,8.3,18.5,18.5l0,0c0,10.2-8.3,18.5-18.5,18.5h-39c-10.2,0-18.5-8.3-18.5-18.5v-2c0-10.2-8.3-18.5-18.5-18.5h-2		c-10.2,0-18.5-8.3-18.5-18.5v-2c0-10.2-8.3-18.5-18.5-18.5h-4c-10.2,0-18.5,8.3-18.5,18.5v2c0,10.2-8.3,18.5-18.5,18.5h-39		c-10.2,0-18.5-8.3-18.5-18.5v-2c0-10.2-8.3-18.5-18.5-18.5h-4c-10.2,0-18.5,8.3-18.5,18.5v4c0,10.2,8.3,18.5,18.5,18.5h2		c10.2,0,18.5,8.3,18.5,18.5v41c0,10.2,8.3,18.5,18.5,18.5h41c10.2,0,18.5,8.3,18.5,18.5v2c0,10.2,8.3,18.5,18.5,18.5h2		c10.2,0,18.5,8.3,18.5,18.5v2c0,10.2,8.3,18.5,18.5,18.5h4c10.2,0,18.5-8.3,18.5-18.5v-2c0-10.2,8.3-18.5,18.5-18.5h41		C1103.7,158.6,1112,150.3,1112,140.1z M995,177.1L995,177.1c0-10.2,8.3-18.5,18.5-18.5l0,0c10.2,0,18.5,8.3,18.5,18.5l0,0		c0,10.2-8.3,18.5-18.5,18.5l0,0C1003.3,195.6,995,187.3,995,177.1z M993,60.1v2c0,10.2,8.3,18.5,18.5,18.5h2		c10.2,0,18.5,8.3,18.5,18.5v39c0,10.2-8.3,18.5-18.5,18.5l0,0c-10.2,0-18.5-8.3-18.5-18.5v-2c0-10.2-8.3-18.5-18.5-18.5h-2		c-10.2,0-18.5-8.3-18.5-18.5v-39c0-10.2,8.3-18.5,18.5-18.5l0,0C984.7,41.6,993,49.9,993,60.1z M956,138.1L956,138.1		c0-10.2,8.3-18.5,18.5-18.5l0,0c10.2,0,18.5,8.3,18.5,18.5l0,0c0,10.2-8.3,18.5-18.5,18.5l0,0C964.3,156.6,956,148.3,956,138.1z		 M876,21.1L876,21.1c0,10.2-8.3,18.5-18.5,18.5l0,0c-10.2,0-18.5-8.3-18.5-18.5l0,0c0-10.2,8.3-18.5,18.5-18.5l0,0		C867.7,2.6,876,10.9,876,21.1z M896.5,41.6h39c10.2,0,18.5,8.3,18.5,18.5v39c0,10.2-8.3,18.5-18.5,18.5h-39		c-10.2,0-18.5-8.3-18.5-18.5v-39C878,49.9,886.3,41.6,896.5,41.6z M993,21.1L993,21.1c0,10.2-8.3,18.5-18.5,18.5l0,0		c-10.2,0-18.5-8.3-18.5-18.5l0,0c0-10.2,8.3-18.5,18.5-18.5l0,0C984.7,2.6,993,10.9,993,21.1z M1032,60.1L1032,60.1		c0,10.2-8.3,18.5-18.5,18.5l0,0c-10.2,0-18.5-8.3-18.5-18.5l0,0c0-10.2,8.3-18.5,18.5-18.5l0,0C1023.7,41.6,1032,49.9,1032,60.1z		 M1052.5,80.6h39c10.2,0,18.5,8.3,18.5,18.5v39c0,10.2-8.3,18.5-18.5,18.5h-39c-10.2,0-18.5-8.3-18.5-18.5v-39		C1034,88.9,1042.3,80.6,1052.5,80.6z M1110,21.1L1110,21.1c0,10.2-8.3,18.5-18.5,18.5l0,0c-10.2,0-18.5-8.3-18.5-18.5l0,0		c0-10.2,8.3-18.5,18.5-18.5l0,0C1101.7,2.6,1110,10.9,1110,21.1z M1130.5,78.6L1130.5,78.6c-10.2,0-18.5-8.3-18.5-18.5l0,0		c0-10.2,8.3-18.5,18.5-18.5l0,0c10.2,0,18.5,8.3,18.5,18.5l0,0C1149,70.3,1140.7,78.6,1130.5,78.6z"/></g></svg>