<?xml version="1.0" encoding="utf-8"?><svg version="1.1" id="Layer_1" xmlns="http://www.w3.org/2000/svg" xmlns:xlink="http://www.w3.org/1999/xlink" x="0px" y="0px"	 viewBox="0 0 1190 842" style="enable-background:new 0 0 1190 842;" xml:space="preserve"><style type="text/css">	.st0{opacity:0.08;fill:#2b343d;}</style><g>	<path class="st0" d="M950.2,236.8h-37.6v-79.3h-79.3v-37.6h39.6V78.3h-41.6v39.6h-37.6V38.6h-80.3V0h-39.6v39.6h38.6v78.3h-37.6		V78.3h-39.6V-1h-81.3v81.3h79.3v39.6h39.6v39.6h40.6v38.6H753v-39.6h-38.6v-38.6h77.3v39.6h39.6v79.3h79.3v39.6h41.6v-39.6h39.6		v-41.6h-41.6L950.2,236.8L950.2,236.8z M833.3,80.3h37.6v37.6h-37.6V80.3z M703.4,29.6h-19.6V10h19.6V29.6z M555.9,78.3V1h77.3		v77.3H555.9z M635.1,117.9V80.3h37.6v37.6H635.1z M723.4,168.5H743v19.6h-19.6V168.5z M712.4,157.5h-37.6v-37.6h37.6V157.5z		 M714.4,117.9V40.6h77.3v77.3H714.4z M793.7,157.5v-37.6h37.6v37.6H793.7z M833.3,236.8v-77.3h77.3v77.3H833.3z M950.2,276.4h-37.6		v-37.6h37.6V276.4z M952.2,199.2h37.6v37.6h-37.6V199.2z"/>	<path class="st0" d="M1150.4,197.2v-79.3h-79.3h-2h-37.6V39.6h38.6V0h-39.6v38.6h-80.3v81.3h79.3v39.6h39.6v37.6h-39.6v41.6h39.6		v39.6h41.6v-41.6h-39.6v-37.6h77.3v39.6h41.6v-41.6h-39.6V197.2z M1040.5,10h19.6v19.6h-19.6V10z M952.2,117.9V40.6h77.3v77.3		H952.2z M1031.5,157.5v-37.6h37.6v37.6H1031.5z M1108.7,238.8v37.6h-37.6v-37.6L1108.7,238.8L1108.7,238.8z M1069.1,236.8h-37.6		v-37.6h37.6V236.8z M1071.1,197.2v-37.6V120h77.3v77.3h-77.3V197.2z M1188,236.8h-37.6v-37.6h37.6V236.8z"/>	<path class="st0" d="M474.6,40.6h41.6V-1h-41.6V40.6z M476.6,1h37.6v37.6h-37.6V1z"/></g></svg>