<?xml version="1.0" encoding="utf-8"?><svg version="1.1" id="Layer_1" xmlns="http://www.w3.org/2000/svg" xmlns:xlink="http://www.w3.org/1999/xlink" x="0px" y="0px"	 viewBox="0 0 1190 842" style="enable-background:new 0 0 1190 842;" xml:space="preserve"><style type="text/css">	.st0{opacity:0.09;fill:#2b343d;enable-background:new    ;}</style><g>	<path class="st0" d="M939.2,300.2L917.9,337h-42.5l-21.8,37.8l21.8,37.8h43.7l21.3-36.8h42.5l21.8-37.8l-21.8-37.8H939.2z		 M917.9,410.7h-41.4l-20.7-35.8l20.7-35.8h41.4l10.3,17.9l10.3,17.9L917.9,410.7z M981.7,373.9h-41.4L930,356l-10.3-17.9l20.7-35.8		h41.4l20.7,35.8L981.7,373.9z"/>	<path class="st0" d="M398.2,154.9h42.5l21.8-37.8l-21.8-37.8H397l-21.3,36.8h-23.3l-30.3-52.5h-61.6l-30.8,53.3l30.2,52.4		l-11.8,20.4h-23.8l-29.6-51.3H135l-12-20.6H79.4l-21.8,37.8l21.8,37.8h24l29.8,51.7H194l11.1,19.2l-20.7,35.8h-42.5l-21.9,38		l21.8,37.8h43.7l21.3-36.8h42.5l21.8-37.8l-21.3-36.8l20.7-35.8H313l21.3-36.8h42.5L398.2,154.9z M398.2,81.2h41.4l20.7,35.8		l-20.7,35.8h-41.4L387.8,135l-10.3-17.9L398.2,81.2z M312,154.9l7.7,13.4h-56.8l7.7-13.4H312z M313.7,153.9l20.7-35.8H350		l-28.5,49.3L313.7,153.9z M232.1,116.9l29.6-51.3H321l29.1,50.5h-16.9L312,152.9h-42.5l-8.3,14.4L232.1,116.9z M142.6,155.7		l-20.7,35.8h-17l29.2-50.6L142.6,155.7z M59.8,155.7l20.7-35.8h41.4l11,19.1l-30.3,52.6H80.5L59.8,155.7z M134.3,243.2l-28.7-49.7		H123l21.8-37.8l-8.8-15.2h57.5l28.4,49.3h-16.4l-21.8,37.8l9,15.6L134.3,243.2L134.3,243.2z M223.3,191.8l-28.9,50.1l-8.3-14.3		l20.7-35.8L223.3,191.8L223.3,191.8z M184.4,373.9H143l-20.7-35.8l20.7-35.8h41.4l10.3,17.9l10.3,17.9L184.4,373.9z M248.2,337.1		h-41.4l-10.3-17.9l-10.3-17.9l20.7-35.8h41.4l20.7,35.8L248.2,337.1z M248.2,263.4h-41.4l-11.3-19.5l30.1-52.1l-0.1-0.1h22.6		l10.3,17.9l10.3,17.9L248.2,263.4z M312,226.6h-41.4l-10.3-17.9L250,190.8l11.8-20.4h59.1l1.5,2.5l10.3,17.9L312,226.6z		 M334.4,189.7L324,171.8l-1.4-2.4l29.6-51.3h23.5L386,136l10.3,17.9l-20.7,35.8H334.4z"/>	<path class="st0" d="M528.8,278.8l11.8-20.4h42.5l12.3-21.3h58.8l12.3,21.3H709l21.3,36.8H774l21.3-36.8h42.5l20.6-35.8l8,13.8		h60.3l12.4,21.4h43.7l21.3-36.8h41.4l20.7,35.8l-21.3,36.8l21.8,37.8h43.7l21.8-37.8l-21.3-36.8l21.3-36.8l-21.8-37.8h-42.5		l-21.3-36.8H1003l-21.3,36.8h-23.3l-30.3-52.5h-61.6l-8.3,14.4L838.5,110l21.3-36.8L838,35.4h-43.7l-21.8,37.8l21.3,36.8		l-21.3,36.8l21.3,36.8l-20.7,35.8h-41.4l-21.3-36.8h-24.5l-30.2-52.3H594l-30.2,52.3h-24.3l-21.3,36.8h-42.5l-21.3,36.8h-42.5		l-21.9,38l21.8,37.8h24.5l30.3,52.5h61.6l30.8-53.3L528.8,278.8z M594.7,234.4l-28.6-49.6H582l20.7,35.8L594.7,234.4z M647.1,220.6		l20.7-35.8h15.8L655,234.2L647.1,220.6z M772.9,293.2h-41.4l-20.7-35.8l10.3-17.9l10.3-17.9h41.4l10.3,17.9l10.3,17.9L772.9,293.2z		 M919.6,220.1l20.7-35.8h15.6l-28.5,49.3L919.6,220.1z M981.7,255.9h-41.4l-11.7-20.3l29.6-51.3h23.5l10.3,17.9l10.3,17.9		L981.7,255.9z M1109.3,329.6h-41.4l-20.7-35.8l20.7-35.8h41.4l20.7,35.8L1109.3,329.6z M1130,220.1l-20.7,35.8h-41.4l-20.7-35.8		l10.3-17.9l10.3-17.9h41.4L1130,220.1z M1004.1,147.4h41.4l20.7,35.8l-10.3,17.9l-10.3,17.9h-41.4l-10.3-17.9l-10.3-17.9		L1004.1,147.4z M867.7,131.7H927l29.1,50.5h-16.9L917.4,220l8.3,14.4h-58l-8-13.8v-0.1l-21.3-36.8l21.3-36.8l-0.4-0.7L867.7,131.7z		 M795.4,37.4h41.4l20.7,35.8L836.8,109h-41.4l-20.7-35.8L795.4,37.4z M795.4,111.1h41.4l20.3,35.1L836,182.7h-40.6l-20.7-35.8		L795.4,111.1z M795.4,184.7h41.3l20.7,35.9l-20.6,35.8h-41.4L785,238.5l-10.3-17.9L795.4,184.7z M729.8,220.6l-10.3,17.9		l-10.3,17.9h-41.4l-11.7-20.2l29.7-51.5h23.3L729.8,220.6z M595.2,132.4h59.3l29.1,50.3h-16.9l-21.8,37.8l8.4,14.5h-56.5l8.4-14.5		l-21.8-37.8h-17.1L595.2,132.4z M540.6,184.7h23.1l29.8,51.6l-11.6,20h-41.4l-10.3-17.9l-10.3-17.9L540.6,184.7z M476.8,221.6h41.4		l10.3,17.9l10.3,17.9L527,277.8h-59l-1.5-2.5l-10.3-17.9L476.8,221.6z M476.8,293.2l-7.7-13.4h56.8l-7.7,13.4H476.8z M475.1,294.2		L454.4,330h-15.6l28.5-49.3L475.1,294.2z M392.3,294.2l20.7-35.8h41.4l10.3,17.9l1.4,2.4L436.5,330H413L392.3,294.2z M527.1,382.5		h-59.3L438.7,332h16.9l21.3-36.8h42.5l8.3-14.4l29.1,50.3L527.1,382.5z"/></g></svg>