<?xml version="1.0" encoding="utf-8"?><svg version="1.1" id="Layer_1" xmlns="http://www.w3.org/2000/svg" xmlns:xlink="http://www.w3.org/1999/xlink" x="0px" y="0px"	 viewBox="0 0 1190 842" style="enable-background:new 0 0 1190 842;" xml:space="preserve"><style type="text/css">	.st0{opacity:0.08;fill:#2b343d;}</style><g>	<path class="st0" d="M422.8,37.4c-9.8,0-17.8-8-17.8-17.8s8-17.8,17.8-17.8s17.8,8,17.8,17.8S432.6,37.4,422.8,37.4 M422.8,39.3		c10.9,0,19.7-8.8,19.7-19.7S433.7,0,422.8,0c-10.9,0-19.7,8.8-19.7,19.7S412,39.3,422.8,39.3L422.8,39.3z"/>	<path class="st0" d="M501.5,37.4c-9.8,0-17.8-8-17.8-17.8s8-17.8,17.8-17.8s17.8,8,17.8,17.8S511.3,37.4,501.5,37.4 M501.5,39.3		c10.9,0,19.7-8.8,19.7-19.7S512.4,0,501.5,0c-10.9,0-19.7,8.8-19.7,19.7S490.7,39.3,501.5,39.3L501.5,39.3z"/>	<path class="st0" d="M580.2,37.4c-9.8,0-17.8-8-17.8-17.8s8-17.8,17.8-17.8s17.8,8,17.8,17.8S590,37.4,580.2,37.4 M580.2,39.3		c10.9,0,19.7-8.8,19.7-19.7S591.1,0,580.2,0c-10.9,0-19.7,8.8-19.7,19.7S569.3,39.3,580.2,39.3L580.2,39.3z"/>	<path class="st0" d="M619.5,76.8c-9.8,0-17.8-8-17.8-17.8s8-17.8,17.8-17.8s17.8,8,17.8,17.8S629.3,76.8,619.5,76.8 M619.5,78.7		c10.9,0,19.7-8.8,19.7-19.7s-8.8-19.7-19.7-19.7s-19.7,8.8-19.7,19.7S608.7,78.7,619.5,78.7L619.5,78.7z"/>	<path class="st0" d="M658.9,37.4c-9.8,0-17.8-8-17.8-17.8s8-17.8,17.8-17.8s17.8,8,17.8,17.8S668.7,37.4,658.9,37.4 M658.9,39.3		c10.9,0,19.7-8.8,19.7-19.7S669.7,0,658.9,0c-10.9,0-19.7,8.8-19.7,19.7S648,39.3,658.9,39.3L658.9,39.3z"/>	<path class="st0" d="M698.2,69.1c-5.6,0-10.1-4.5-10.1-10.1s4.5-10.1,10.1-10.1s10.1,4.5,10.1,10.1S703.8,69.1,698.2,69.1		 M698.2,78.7c10.9,0,19.7-8.8,19.7-19.7s-8.8-19.7-19.7-19.7s-19.7,8.8-19.7,19.7S687.4,78.7,698.2,78.7L698.2,78.7z"/>	<path class="st0" d="M737.6,37.4c-9.8,0-17.8-8-17.8-17.8s8-17.8,17.8-17.8s17.8,8,17.8,17.8S747.4,37.4,737.6,37.4 M737.6,39.3		c10.9,0,19.7-8.8,19.7-19.7S748.4,0,737.6,0c-10.9,0-19.7,8.8-19.7,19.7S726.7,39.3,737.6,39.3L737.6,39.3z"/>	<path class="st0" d="M776.9,76.8c-9.8,0-17.8-8-17.8-17.8s8-17.8,17.8-17.8s17.8,8,17.8,17.8S786.7,76.8,776.9,76.8 M776.9,78.7		c10.9,0,19.7-8.8,19.7-19.7s-8.8-19.7-19.7-19.7s-19.7,8.8-19.7,19.7S766,78.7,776.9,78.7L776.9,78.7z"/>	<path class="st0" d="M816.3,37.4c-9.8,0-17.8-8-17.8-17.8s8-17.8,17.8-17.8s17.8,8,17.8,17.8S826,37.4,816.3,37.4 M816.3,39.3		c10.9,0,19.7-8.8,19.7-19.7S827.1,0,816.3,0c-10.9,0-19.7,8.8-19.7,19.7S805.4,39.3,816.3,39.3L816.3,39.3z"/>	<path class="st0" d="M816.3,116.1c-9.8,0-17.8-8-17.8-17.8s8-17.8,17.8-17.8s17.8,8,17.8,17.8C834,108.1,826,116.1,816.3,116.1		 M816.3,118c10.9,0,19.7-8.8,19.7-19.7s-8.8-19.7-19.7-19.7s-19.7,8.8-19.7,19.7S805.4,118,816.3,118L816.3,118z"/>	<path class="st0" d="M855.6,69.1c-5.6,0-10.1-4.5-10.1-10.1s4.5-10.1,10.1-10.1s10.1,4.5,10.1,10.1S861.2,69.1,855.6,69.1		 M855.6,78.7c10.9,0,19.7-8.8,19.7-19.7s-8.8-19.7-19.7-19.7s-19.7,8.8-19.7,19.7S844.7,78.7,855.6,78.7L855.6,78.7z"/>	<path class="st0" d="M894.9,37.4c-9.8,0-17.8-8-17.8-17.8s8-17.8,17.8-17.8s17.8,8,17.8,17.8S904.7,37.4,894.9,37.4 M894.9,39.3		c10.9,0,19.7-8.8,19.7-19.7S905.8,0,894.9,0c-10.9,0-19.7,8.8-19.7,19.7S884.1,39.3,894.9,39.3L894.9,39.3z"/>	<path class="st0" d="M894.9,116.1c-9.8,0-17.8-8-17.8-17.8s8-17.8,17.8-17.8s17.8,8,17.8,17.8S904.7,116.1,894.9,116.1 M894.9,118		c10.9,0,19.7-8.8,19.7-19.7s-8.8-19.7-19.7-19.7s-19.7,8.8-19.7,19.7C875.3,109.2,884.1,118,894.9,118L894.9,118z"/>	<path class="st0" d="M934.3,76.8c-9.8,0-17.8-8-17.8-17.8s8-17.8,17.8-17.8s17.8,8,17.8,17.8S944.1,76.8,934.3,76.8 M934.3,78.7		c10.9,0,19.7-8.8,19.7-19.7s-8.8-19.7-19.7-19.7s-19.7,8.8-19.7,19.7S923.4,78.7,934.3,78.7L934.3,78.7z"/>	<path class="st0" d="M973.6,37.4c-9.8,0-17.8-8-17.8-17.8s8-17.8,17.8-17.8s17.8,8,17.8,17.8S983.4,37.4,973.6,37.4 M973.6,39.3		c10.9,0,19.7-8.8,19.7-19.7S984.5,0,973.6,0s-19.7,8.8-19.7,19.7S962.8,39.3,973.6,39.3L973.6,39.3z"/>	<path class="st0" d="M973.6,116.1c-9.8,0-17.8-8-17.8-17.8s8-17.8,17.8-17.8s17.8,8,17.8,17.8C991.4,108.1,983.4,116.1,973.6,116.1		 M973.6,118c10.9,0,19.7-8.8,19.7-19.7s-8.8-19.7-19.7-19.7s-19.7,8.8-19.7,19.7C953.9,109.2,962.8,118,973.6,118L973.6,118z"/>	<path class="st0" d="M1013,76.8c-9.8,0-17.8-8-17.8-17.8s8-17.8,17.8-17.8s17.8,8,17.8,17.8S1022.8,76.8,1013,76.8 M1013,78.7		c10.9,0,19.7-8.8,19.7-19.7s-8.8-19.7-19.7-19.7s-19.7,8.8-19.7,19.7S1002.1,78.7,1013,78.7L1013,78.7z"/>	<path class="st0" d="M1013,155.5c-9.8,0-17.8-8-17.8-17.8s8-17.8,17.8-17.8s17.8,8,17.8,17.8S1022.8,155.5,1013,155.5 M1013,157.4		c10.9,0,19.7-8.8,19.7-19.7s-8.8-19.7-19.7-19.7s-19.7,8.8-19.7,19.7S1002.1,157.4,1013,157.4L1013,157.4z"/>	<path class="st0" d="M1052.3,29.8c-5.6,0-10.1-4.5-10.1-10.1s4.5-10.1,10.1-10.1s10.1,4.5,10.1,10.1S1057.9,29.8,1052.3,29.8		 M1052.3,39.3c10.9,0,19.7-8.8,19.7-19.7S1063.2,0,1052.3,0c-10.9,0-19.7,8.8-19.7,19.7S1041.4,39.3,1052.3,39.3L1052.3,39.3z"/>	<path class="st0" d="M1052.3,116.1c-9.8,0-17.8-8-17.8-17.8s8-17.8,17.8-17.8s17.8,8,17.8,17.8		C1070.1,108.1,1062.1,116.1,1052.3,116.1 M1052.3,118c10.9,0,19.7-8.8,19.7-19.7s-8.8-19.7-19.7-19.7c-10.9,0-19.7,8.8-19.7,19.7		C1032.6,109.2,1041.4,118,1052.3,118L1052.3,118z"/>	<path class="st0" d="M1091.6,76.8c-9.8,0-17.8-8-17.8-17.8s8-17.8,17.8-17.8s17.8,8,17.8,17.8S1101.4,76.8,1091.6,76.8		 M1091.6,78.7c10.9,0,19.7-8.8,19.7-19.7s-8.8-19.7-19.7-19.7c-10.9,0-19.7,8.8-19.7,19.7S1080.8,78.7,1091.6,78.7L1091.6,78.7z"/>	<path class="st0" d="M1091.6,155.5c-9.8,0-17.8-8-17.8-17.8s8-17.8,17.8-17.8s17.8,8,17.8,17.8S1101.4,155.5,1091.6,155.5		 M1091.6,157.4c10.9,0,19.7-8.8,19.7-19.7s-8.8-19.7-19.7-19.7c-10.9,0-19.7,8.8-19.7,19.7S1080.8,157.4,1091.6,157.4L1091.6,157.4		z"/>	<path class="st0" d="M1131,37.4c-9.8,0-17.8-8-17.8-17.8s8-17.8,17.8-17.8s17.8,8,17.8,17.8S1140.8,37.4,1131,37.4 M1131,39.3		c10.9,0,19.7-8.8,19.7-19.7S1141.9,0,1131,0s-19.7,8.8-19.7,19.7S1120.1,39.3,1131,39.3L1131,39.3z"/>	<path class="st0" d="M1131,116.1c-9.8,0-17.8-8-17.8-17.8s8-17.8,17.8-17.8s17.8,8,17.8,17.8C1148.7,108.1,1140.8,116.1,1131,116.1		 M1131,118c10.9,0,19.7-8.8,19.7-19.7s-8.8-19.7-19.7-19.7c-10.9,0-19.7,8.8-19.7,19.7S1120.1,118,1131,118L1131,118z"/>	<path class="st0" d="M1170.3,76.8c-9.8,0-17.8-8-17.8-17.8s8-17.8,17.8-17.8s17.8,8,17.8,17.8S1180.1,76.8,1170.3,76.8		 M1170.3,78.7c10.9,0,19.7-8.8,19.7-19.7s-8.8-19.7-19.7-19.7c-10.9,0-19.7,8.8-19.7,19.7S1159.5,78.7,1170.3,78.7L1170.3,78.7z"/>	<path class="st0" d="M1170.3,155.5c-9.8,0-17.8-8-17.8-17.8s8-17.8,17.8-17.8s17.8,8,17.8,17.8S1180.1,155.5,1170.3,155.5		 M1170.3,157.4c10.9,0,19.7-8.8,19.7-19.7s-8.8-19.7-19.7-19.7c-10.9,0-19.7,8.8-19.7,19.7S1159.5,157.4,1170.3,157.4L1170.3,157.4		z"/></g></svg>