<?xml version="1.0" encoding="utf-8"?><svg version="1.1" id="Layer_1" xmlns="http://www.w3.org/2000/svg" xmlns:xlink="http://www.w3.org/1999/xlink" x="0px" y="0px"	 viewBox="0 0 1190 842" style="enable-background:new 0 0 1190 842;" xml:space="preserve"><style type="text/css">	.st0{opacity:0.11;fill:#2b343d;enable-background:new    ;}</style><g>	<path class="st0" d="M594.2,88l32.1,15.1L658.5,88l32.1,15.1L722.8,88l32.1,15.1L787.1,88l32.1,15.1L851.4,88l32.1,15.1L915.7,88		l32.1,15.1L979.9,88l32.1,15.1l32.1-15.1l33.1,15.5V91.1l-33.1-15.5L1012,90.7l-32.1-15.1l-32.1,15.1l-32.1-15.1l-32.1,15.1		l-32.1-15.1l-32.1,15.1l-32.1-15.1l-32.1,15.1l-32.1-15.1L691,90.7l-32.1-15.1l-32.1,15.1l-32.1-15.1l-32.7,15l-33.1-15.5v12.4		L562,103L594.2,88z M530.9,78.3L562,92.9l32.1-15.1l32.1,15.1l32.1-15.1l32.1,15.1l32.1-15.1l32.1,15.1l32.1-15.1l32.1,15.1		l32.1-15.1L883,92.9l32.1-15.1l32.1,15.1l32.1-15.1l32.1,15.1l32.1-15.1l31.1,14.6v8l-31.1-14.6l-32.1,15.1l-32.1-15.1l-32.1,15.1		l-32.1-15.1L883,100.9l-32.1-15.1l-32.1,15.1l-32.1-15.1l-32.1,15.1l-32.1-15.1l-32.1,15.1l-32.1-15.1l-32.1,15.1l-32.1-15.1		L562,100.9l-31.1-14.6V78.3z"/>	<path class="st0" d="M1108.5,50.2l-32.1,15.1l-32.1-15.1l-32.1,15.1l-33.1-15.5v12.4l33.1,15.5l32.1-15.1l32.1,15.1l32.1-15.1		l33.1,15.5V65.7L1108.5,50.2z M1139.7,75l-31.1-14.6l-32.1,15.1l-32.1-15.1l-32.1,15.1l-31.1-14.6v-8l31.1,14.6l32.1-15.1		l32.1,15.1l32.1-15.1l31.1,14.6V75z"/>	<path class="st0" d="M1107.5,87.5l34.1,16V91.1l-34.1-16V87.5z M1109.5,78.3l30.1,14.1v8l-30.1-14.1V78.3z"/>	<path class="st0" d="M787.1,104.5L755,119.6L721.8,104v12.4l33.1,15.5l32.1-15.1l32.1,15.1l33.1-15.5V104l-33.1,15.5L787.1,104.5z		 M850.4,115.2l-31.1,14.6l-32.1-15.1l-32.1,15.1L724,115.2v-8l31.1,14.6l32.1-15.1l32.1,15.1l31.1-14.6L850.4,115.2L850.4,115.2z"		/>	<path class="st0" d="M1076.4,119.6l-32.1-15.1l-32.1,15.1l-32.1-15.1L948,119.6l-32.1-15.1L882.5,120v12.4l33.1-15.5l32.1,15.1		l32.1-15.1l32.1,15.1l32.1-15.1l32.1,15.1l32.1-15.1l33.1,15.5V120l-33.1-15.5L1076.4,119.6z M1139.7,129.3l-31.1-14.6l-32.1,15.1		l-32.1-15.1l-32.1,15.1l-32.1-15.1l-32.1,15.1L916,114.7l-31.1,14.6v-8l31.1-14.6l32.1,15.1l32.1-15.1l32.1,15.1l32.1-15.1		l32.1,15.1l32.1-15.1l31.1,14.6L1139.7,129.3L1139.7,129.3z"/>	<path class="st0" d="M1076.4,144.9l-33.1-15.5v12.4l33.1,15.5l32.1-15.1l33.1,15.5v-12.4l-33.1-15.5L1076.4,144.9z M1139.7,154.7		l-31.1-14.6l-32.1,15.1l-31.1-14.6v-8l31.1,14.6l32.1-15.1l31.1,14.6V154.7z"/></g></svg>