<?xml version="1.0" encoding="utf-8"?><svg version="1.1" id="Layer_1" xmlns="http://www.w3.org/2000/svg" xmlns:xlink="http://www.w3.org/1999/xlink" x="0px" y="0px"	 viewBox="0 0 1190 842" style="enable-background:new 0 0 1190 842;" xml:space="preserve"><style type="text/css">	.st0{opacity:0.08;fill:#2b343d;}</style><g>	<path class="st0" d="M920.6,176v-35.7h-51.9V67h51.9V0h-1v66h-50.9V0h-1v66h-42.6v0.5c-0.5,33.8-0.3,42.3-0.1,44.6h-63.3		c-0.3-3.1-2.8-5.5-5.9-5.5c-3.3,0-6,2.7-6,6s2.7,6,6,6c3.1,0,5.7-2.4,5.9-5.5h63.9v-0.6l0.4-0.1c-0.4-1.4-0.2-27.1,0.1-44.4h41.6		v74.2h51.9V176c-3.1,0.3-5.5,2.8-5.5,5.9c0,3.3,2.7,6,6,6s6-2.7,6-6C926.1,178.8,923.7,176.2,920.6,176z"/>	<path class="st0" d="M1013.1,142.2v-49h-42.6V0h-1v94.2h42.6v48c-3.1,0.3-5.5,2.8-5.5,5.9c0,3.3,2.7,6,6,6s6-2.7,6-6		C1018.6,145.1,1016.1,142.5,1013.1,142.2z"/>	<path class="st0" d="M76.7,142.2V56.9h-31V0h-1v57.9h31v84.3c-3.1,0.3-5.5,2.8-5.5,5.9c0,3.3,2.7,6,6,6s6-2.7,6-6		C82.1,145.1,79.7,142.5,76.7,142.2z"/>	<path class="st0" d="M527.8,57.4c3.3,0,6-2.7,6-6c0-3.1-2.4-5.7-5.5-5.9V0h-1v45.5c-3.1,0.3-5.5,2.8-5.5,5.9		C521.8,54.8,524.5,57.4,527.8,57.4z"/>	<path class="st0" d="M366.1,175v25.1c-3.1,0.3-5.5,2.8-5.5,5.9c0,3.3,2.7,6,6,6s6-2.7,6-6c0-3.1-2.4-5.7-5.5-5.9V175h94V94.1h18.5		v34.4h36.5V94.2H562V176c-3.1,0.3-5.5,2.8-5.5,5.9c0,3.3,2.7,6,6,6s6-2.7,6-6c0-3.1-2.4-5.7-5.5-5.9V94.2h20		c0.3,3.1,2.8,5.5,5.9,5.5c3.3,0,6-2.7,6-6s-2.7-6-6-6c-3.1,0-5.7,2.4-5.9,5.5h-20V0h-1v93.2h-46.9v34.3h-34.5V93.1h-20.5V174h-93		V38.4h59.7v84.4c-3.1,0.3-5.5,2.8-5.5,5.9c0,3.3,2.7,6,6,6s6-2.7,6-6c0-3.1-2.4-5.7-5.5-5.9V38.4h52.4v-1c0.2,0,0.4,0.2,0.4,0.2		c-0.5-1.4-0.2-23.3,0.1-37.7h-1c-0.3,15.3-0.6,33.3-0.1,37.4h-51.8V0h-1v37.4h-59.7V0h-1v37.4H301V0h-1v38.4h66.1V174h-64.6V81		h-54.7V37.4h-20.4c-0.2-2.9-2.5-5.2-5.4-5.4V0h-1v32c-3.1,0.3-5.5,2.8-5.5,5.9c0,3.3,2.7,6,6,6c3.1,0,5.7-2.4,5.9-5.5h19.4V81H206		V56.9h-46.8V0h-1v57.9H205V81h-95c-0.3-3-2.8-5.4-5.9-5.4c-3.3,0-6,2.7-6,6s2.7,6,6,6c3.1,0,5.7-2.4,5.9-5.5h95v17.7		c-3.1,0.3-5.5,2.8-5.5,5.9c0,3.3,2.7,6,6,6s6-2.7,6-6c0-3.1-2.4-5.7-5.5-5.9V82h39.8v46.8c-3.1,0.3-5.5,2.8-5.5,5.9		c0,3.3,2.7,6,6,6s6-2.7,6-6c0-3.1-2.4-5.7-5.5-5.9V82h53.7v93H366.1z"/>	<path class="st0" d="M652.4,122.9c-3.1,0.3-5.5,2.8-5.5,5.9c0,3.3,2.7,6,6,6s6-2.7,6-6c0-3.1-2.4-5.7-5.5-5.9V67.1h44.1v95.5		c-3.1,0.3-5.5,2.8-5.5,5.9c0,3.3,2.7,6,6,6s6-2.7,6-6c0-3.1-2.4-5.7-5.5-5.9V67.1h85.9v-0.6l0.4-0.1c-0.5-1.7-0.3-40.6,0.1-66.3h-1		c-0.3,27.7-0.6,60.4,0,66h-85.3V0h-1v66.1h-44.1V0h-1v66.1h-28.7v-66h-1v67h29.7v55.8H652.4z"/>	<path class="st0" d="M1153.9,52.8V0h-1v51.8h-25V0h-1v51.8H1060v20.3c-3.1,0.3-5.5,2.8-5.5,5.9c0,3.3,2.7,6,6,6s6-2.7,6-6		c0-3.1-2.4-5.7-5.5-5.9V52.8h65.9V176c-3.1,0.3-5.5,2.8-5.5,5.9c0,3.3,2.7,6,6,6s6-2.7,6-6c0-3.1-2.4-5.7-5.5-5.9V52.8H1153.9z"/></g></svg>